<svg width="75" height="15" viewBox="0 0 75 15" fill="none" xmlns="http://www.w3.org/2000/svg">
<path fill-rule="evenodd" clip-rule="evenodd" d="M68.3431 0.292887L74.7071 6.65685C75.0976 7.04737 75.0976 7.68054 74.7071 8.07106L68.3431 14.435C67.9526 14.8255 67.3195 14.8255 66.9289 14.435C66.5384 14.0445 66.5384 13.4113 66.9289 13.0208L71.5858 8.36395L1 8.36396C0.447716 8.36396 6.9206e-07 7.91625 6.43778e-07 7.36396C5.95496e-07 6.81168 0.447716 6.36396 1 6.36396L71.5858 6.36395L66.9289 1.7071C66.5384 1.31658 66.5384 0.683412 66.9289 0.292887C67.3195 -0.097637 67.9526 -0.097637 68.3431 0.292887Z" fill="#00B1C9"/>
</svg>
