<svg width="20" height="20" viewBox="0 0 20 20" fill="none" xmlns="http://www.w3.org/2000/svg">
<g clip-path="url(#clip0_239_1058)">
<path d="M3.86764 16.1602C3.69143 15.9735 3.48084 15.8187 3.24615 15.7032C3.00454 15.5831 2.74106 15.5073 2.46964 15.4799C2.43103 15.4744 2.39207 15.4714 2.35303 15.4709H2.21584C1.78073 15.4657 1.35414 15.5852 0.992068 15.8136C0.638977 16.0352 0.359694 16.3472 0.186746 16.7132C0.127907 16.8431 0.0819776 16.9778 0.0495529 17.1157C-0.0171687 17.396 -0.0171687 17.6869 0.0495529 17.9673C0.0819187 18.1056 0.127849 18.2408 0.186746 18.371C0.362594 18.7336 0.641394 19.0428 0.992068 19.2642C1.35285 19.4944 1.77934 19.6149 2.21446 19.6095C2.38331 19.6104 2.55172 19.5934 2.71659 19.5589C2.87071 19.5242 3.02094 19.4755 3.16521 19.4135L3.22969 19.3798C3.2629 19.3609 3.29779 19.3448 3.33395 19.3317L3.42999 19.2967L3.47938 19.3681C3.52445 19.4417 3.58933 19.5027 3.66741 19.5449C3.74549 19.5871 3.83398 19.6089 3.92388 19.6082C4.05991 19.6076 4.19033 19.5569 4.28745 19.4667C4.33894 19.4249 4.38039 19.3732 4.40902 19.3149C4.43765 19.2567 4.4528 19.1934 4.45345 19.1292V17.5402C4.45147 17.284 4.39744 17.0306 4.2943 16.7937C4.19153 16.561 4.04721 16.3467 3.86764 16.1602ZM3.29966 17.9777C3.23905 18.1086 3.15295 18.2275 3.04585 18.3282C2.93798 18.4287 2.81025 18.5081 2.66994 18.5619C2.52404 18.6181 2.3679 18.6468 2.21034 18.6463C2.05896 18.646 1.90935 18.6155 1.77132 18.5567C1.63397 18.4993 1.50819 18.4198 1.39954 18.3217C1.28956 18.2218 1.20023 18.1034 1.13613 17.9725C1.06875 17.8369 1.03407 17.6888 1.0346 17.5389C1.03484 17.393 1.06757 17.2488 1.13063 17.1157C1.19242 16.9833 1.27991 16.8631 1.38856 16.7613C1.49644 16.66 1.62289 16.5782 1.76173 16.5198C1.90362 16.461 2.05683 16.4307 2.21172 16.4307C2.36661 16.4307 2.51982 16.461 2.66171 16.5198C2.8027 16.5773 2.9311 16.6592 3.04036 16.7613C3.14898 16.8631 3.23646 16.9833 3.29828 17.1157C3.36135 17.2488 3.39408 17.393 3.39432 17.5389C3.39613 17.6911 3.36387 17.842 3.29966 17.9816V17.9777Z" fill="#313131"/>
<path d="M7.51565 15.4817C7.2256 15.492 6.93985 15.5513 6.67191 15.6569C6.41433 15.7577 6.17854 15.9025 5.97634 16.084C5.78059 16.2657 5.6228 16.4806 5.51125 16.7176C5.39329 16.9592 5.33287 17.2225 5.33427 17.4887V19.1426C5.33192 19.207 5.34389 19.2711 5.36942 19.3308C5.39494 19.3905 5.43346 19.4445 5.48245 19.4892C5.5284 19.5322 5.58311 19.5659 5.64325 19.5882C5.7034 19.6105 5.76772 19.621 5.83229 19.619C5.96943 19.6262 6.10402 19.5819 6.20682 19.4957C6.25497 19.4564 6.29397 19.4081 6.32136 19.3538C6.34876 19.2995 6.36395 19.2404 6.36597 19.1802V17.5497C6.36202 17.3984 6.39194 17.2479 6.45377 17.1083C6.5125 16.9777 6.59675 16.8588 6.70209 16.7578C6.81029 16.656 6.93875 16.5754 7.08004 16.5208C7.22132 16.4662 7.37264 16.4387 7.52524 16.4397C7.66463 16.4379 7.79806 16.3859 7.89841 16.2943C7.9461 16.2522 7.98392 16.2011 8.00945 16.1443C8.03497 16.0875 8.04762 16.0263 8.04658 15.9646C8.03749 15.8346 7.97844 15.7122 7.88058 15.6206C7.8332 15.5748 7.7763 15.5388 7.71349 15.5149C7.65068 15.491 7.58332 15.4797 7.51565 15.4817Z" fill="#313131"/>
<path d="M12.7275 18.5088C12.7001 18.4541 12.6603 18.4058 12.6109 18.3673C12.51 18.2801 12.3771 18.2335 12.2405 18.2375H12.2309C12.0937 18.2351 11.9606 18.2814 11.8577 18.3673C11.7585 18.4573 11.6402 18.5264 11.5106 18.5698C11.3605 18.6178 11.2026 18.6402 11.0442 18.636C10.8819 18.6369 10.7213 18.6059 10.5722 18.5452C10.43 18.4871 10.3016 18.4023 10.195 18.2959C10.0978 18.1902 10.0224 18.0683 9.97271 17.9363C9.92058 17.7987 9.89819 17.6526 9.90686 17.5066V16.4408H11.073C11.1397 16.4399 11.2055 16.426 11.2661 16.3999C11.3268 16.3737 11.3811 16.3359 11.4256 16.2889C11.4747 16.2454 11.5142 16.1932 11.5416 16.1351C11.5691 16.077 11.5841 16.0143 11.5856 15.9507C11.5871 15.8871 11.5752 15.8239 11.5506 15.7647C11.5259 15.7055 11.489 15.6516 11.442 15.606C11.3945 15.56 11.3367 15.5244 11.2729 15.502C11.2091 15.4795 11.1408 15.4707 11.073 15.4762H9.90686V14.5467C9.90941 14.485 9.897 14.4236 9.87061 14.3671C9.84422 14.3106 9.80452 14.2606 9.75457 14.2209C9.64186 14.1334 9.49965 14.0873 9.35397 14.091C9.21036 14.0873 9.07027 14.1335 8.96023 14.2209C8.91027 14.2606 8.87058 14.3106 8.84418 14.3671C8.81779 14.4236 8.8054 14.485 8.80794 14.5467V17.4988C8.80252 17.7975 8.86522 18.0937 8.99178 18.3673C9.10933 18.6191 9.27969 18.8457 9.49253 19.0333C9.707 19.2199 9.95765 19.3654 10.2306 19.4617C10.5181 19.5628 10.8226 19.6138 11.1292 19.6123C11.4118 19.6145 11.6918 19.5624 11.9524 19.4591C12.2142 19.3527 12.4532 19.2018 12.6576 19.0138C12.7014 18.9728 12.7344 18.9225 12.7536 18.8671C12.7746 18.8082 12.7839 18.7462 12.781 18.6841C12.7758 18.6229 12.7576 18.5633 12.7275 18.5088Z" fill="#313131"/>
<path d="M19.8493 18.7892L18.524 17.5404L19.8479 16.2915C19.8935 16.2463 19.9291 16.1929 19.9527 16.1345C19.9762 16.0761 19.9873 16.0138 19.9851 15.9514C19.9876 15.8898 19.9767 15.8284 19.9531 15.771C19.9295 15.7137 19.8937 15.6615 19.8479 15.6177C19.7528 15.5255 19.6232 15.4723 19.4871 15.4697H19.4816C19.4185 15.47 19.3562 15.4825 19.2984 15.5064C19.2406 15.5303 19.1886 15.5651 19.1455 15.6086L17.7914 16.8588L16.4661 15.6203C16.3664 15.5336 16.2389 15.481 16.1039 15.471C16.036 15.4685 15.9683 15.4803 15.9059 15.5057C15.8435 15.5311 15.7878 15.5694 15.7431 15.6177C15.6541 15.7128 15.6001 15.8326 15.5894 15.9592C15.585 16.0178 15.595 16.0766 15.6189 16.131C15.6427 16.1853 15.6796 16.2336 15.7266 16.272L17.0807 17.5391L15.7266 18.8061C15.6793 18.8497 15.6426 18.9024 15.6189 18.9606C15.5952 19.0189 15.5852 19.0813 15.5894 19.1436C15.5937 19.2692 15.6493 19.3884 15.7444 19.476C15.791 19.5223 15.848 19.558 15.9112 19.5805C15.9744 19.603 16.0421 19.6116 16.1094 19.6058C16.2434 19.6025 16.3723 19.5568 16.4757 19.476L17.7955 18.2323L19.1207 19.4526C19.1682 19.5027 19.2264 19.5428 19.2915 19.5701C19.3565 19.5974 19.4269 19.6113 19.498 19.611C19.5639 19.6136 19.6297 19.6034 19.6912 19.581C19.7528 19.5587 19.8089 19.5247 19.8561 19.4812C19.9064 19.4368 19.9459 19.3825 19.9717 19.3222C19.9975 19.2619 20.0091 19.197 20.0056 19.132C20.0051 19.0678 19.991 19.0045 19.9642 18.9456C19.9373 18.8867 19.8982 18.8335 19.8493 18.7892Z" fill="#313131"/>
<path d="M14.4738 15.6087C14.441 15.582 14.4051 15.5589 14.3668 15.5399C14.2921 15.4953 14.2054 15.4723 14.1171 15.4737C14.0289 15.4723 13.9421 15.4953 13.8674 15.5399C13.8291 15.5589 13.7932 15.582 13.7604 15.6087C13.7115 15.6467 13.6722 15.6944 13.6451 15.7485C13.6181 15.8026 13.604 15.8617 13.604 15.9216V19.158C13.6041 19.2217 13.619 19.2847 13.6477 19.3423C13.6763 19.4 13.7181 19.451 13.77 19.4916C13.8641 19.5702 13.9862 19.612 14.1116 19.6085H14.1295C14.2549 19.612 14.377 19.5702 14.4711 19.4916C14.523 19.451 14.5647 19.4 14.5934 19.3423C14.6221 19.2847 14.637 19.2217 14.6371 19.158V15.9216C14.6362 15.8612 14.6211 15.8018 14.5929 15.7476C14.5646 15.6935 14.5239 15.646 14.4738 15.6087Z" fill="#313131"/>
<path d="M14.5014 14.2464C14.4576 14.2007 14.4039 14.1643 14.3441 14.1397C14.2842 14.115 14.2195 14.1027 14.1543 14.1036C14.0208 14.1009 13.8914 14.1475 13.7935 14.2334C13.7444 14.2738 13.7048 14.3234 13.6771 14.379C13.6495 14.4347 13.6344 14.4952 13.633 14.5567C13.6273 14.6232 13.6366 14.6901 13.6603 14.753C13.6839 14.8159 13.7214 14.8733 13.7701 14.9215C13.8746 15.0109 14.0107 15.06 14.1515 15.0591C14.2163 15.0596 14.2805 15.0472 14.3399 15.0225C14.3992 14.9979 14.4524 14.9617 14.4959 14.9163C14.59 14.8268 14.6428 14.7057 14.6428 14.5794C14.6428 14.4532 14.59 14.3321 14.4959 14.2425L14.5014 14.2464Z" fill="#313131"/>
</g>
<g clip-path="url(#clip1_239_1058)">
<path d="M9.99883 5.55273C8.49886 5.55273 7.13525 6.82439 7.13525 8.39272C7.13732 8.96964 7.32132 9.53156 7.66161 10.0002C8.38978 9.57268 9.1793 9.27061 10.0043 9.27061C10.8293 9.27061 11.6174 9.57268 12.347 10.0002C12.6872 9.53156 12.8712 8.96964 12.8733 8.39272C12.8679 6.82439 11.5029 5.55273 9.99883 5.55273Z" fill="#313131"/>
<path d="M9.99723 0.382812C6.31549 0.382812 3.33057 8.09231 3.33057 11.6915C3.33057 14.4843 5.12916 11.4852 7.65455 10.0005C7.29822 9.51239 7.11388 8.92205 7.12989 8.32024C7.14591 7.71844 7.36139 7.1385 7.74319 6.66962C7.62147 6.95751 7.55888 7.26648 7.5591 7.57853C7.5591 8.21801 7.81597 8.83129 8.27321 9.28347C8.73045 9.73565 9.3506 9.98969 9.99723 9.98969C10.6439 9.98969 11.264 9.73565 11.7212 9.28347C12.1785 8.83129 12.4354 8.21801 12.4354 7.57853C12.4356 7.26648 12.373 6.95751 12.2513 6.66962C12.6331 7.1385 12.8486 7.71844 12.8646 8.32024C12.8806 8.92205 12.6962 9.51239 12.3399 10.0005C14.8667 11.4839 16.6639 14.4843 16.6639 11.6915C16.6639 8.09366 13.679 0.382812 9.99723 0.382812Z" fill="#313131"/>
</g>
<defs>
<clipPath id="clip0_239_1058">
<rect width="20" height="5.53553" fill="white" transform="translate(0 14.082)"/>
</clipPath>
<clipPath id="clip1_239_1058">
<rect width="13.3333" height="12.455" fill="white" transform="translate(3.3335 0.382812)"/>
</clipPath>
</defs>
</svg>
