<svg width="52" height="52" viewBox="0 0 52 52" fill="none" xmlns="http://www.w3.org/2000/svg">
<rect width="52" height="52" fill="white" fill-opacity="0.15"/>
<g clip-path="url(#clip0_302_545)">
<path d="M11.283 37.9502C11.1842 37.8512 11.0501 37.7955 10.9103 37.7953C10.7704 37.7951 10.6362 37.8505 10.5372 37.9493C10.2336 38.2522 10.0663 38.6549 10.0663 39.0835C10.0663 39.512 10.2335 39.9147 10.5372 40.2176C10.5861 40.2665 10.6442 40.3053 10.7081 40.3318C10.772 40.3582 10.8405 40.3717 10.9097 40.3716C10.979 40.3717 11.0478 40.3581 11.1118 40.3315C11.1759 40.3049 11.2341 40.2659 11.283 40.2167C11.332 40.1677 11.3707 40.1095 11.3972 40.0455C11.4236 39.9815 11.4372 39.9129 11.4371 39.8437C11.437 39.7744 11.4233 39.7059 11.3967 39.6419C11.3701 39.578 11.3312 39.5199 11.2821 39.471C11.2309 39.4203 11.1904 39.3599 11.1627 39.2934C11.1351 39.2269 11.1209 39.1555 11.121 39.0835C11.121 38.9372 11.1782 38.7996 11.2821 38.6959C11.3811 38.5971 11.4368 38.4631 11.437 38.3232C11.4371 38.1834 11.3817 38.0492 11.283 37.9502ZM9.77462 36.6068C9.67586 36.5078 9.54182 36.452 9.40197 36.4518C9.26212 36.4516 9.12792 36.507 9.02888 36.6057C8.36534 37.2675 8 38.1474 8 39.0834C8 40.0195 8.36534 40.8994 9.02881 41.5611C9.07771 41.61 9.13577 41.6487 9.19967 41.6751C9.26357 41.7016 9.33205 41.7151 9.40119 41.715C9.47057 41.7151 9.53929 41.7015 9.60337 41.6749C9.66745 41.6483 9.72563 41.6092 9.77455 41.56C9.8733 41.461 9.92867 41.3268 9.92849 41.187C9.9283 41.0471 9.87258 40.9131 9.77356 40.8143C9.30999 40.3519 9.05469 39.7373 9.05469 39.0834C9.05469 38.4297 9.30999 37.815 9.77363 37.3526C9.82267 37.3037 9.86159 37.2456 9.88818 37.1817C9.91477 37.1177 9.9285 37.0492 9.92859 36.9799C9.92869 36.9107 9.91513 36.8421 9.88872 36.778C9.8623 36.714 9.82353 36.6558 9.77462 36.6068ZM40.717 37.9502C40.6182 38.0492 40.5628 38.1834 40.563 38.3233C40.5632 38.4631 40.6189 38.5972 40.718 38.6959C40.7691 38.7466 40.8097 38.807 40.8373 38.8736C40.865 38.9401 40.8791 39.0114 40.879 39.0835C40.879 39.2297 40.8218 39.3673 40.718 39.471C40.6678 39.5196 40.6278 39.5778 40.6002 39.642C40.5727 39.7062 40.5582 39.7753 40.5576 39.8452C40.5571 39.9151 40.5704 39.9844 40.5968 40.0491C40.6232 40.1138 40.6622 40.1726 40.7116 40.2221C40.761 40.2715 40.8197 40.3107 40.8843 40.3373C40.9489 40.3639 41.0182 40.3774 41.0881 40.377C41.158 40.3766 41.2271 40.3623 41.2914 40.3349C41.3557 40.3076 41.4139 40.2677 41.4627 40.2176C41.7664 39.9147 41.9336 39.512 41.9336 39.0835C41.9336 38.6549 41.7664 38.2522 41.4627 37.9493C41.4137 37.9003 41.3555 37.8615 41.2915 37.8351C41.2275 37.8087 41.1589 37.7951 41.0896 37.7952C41.0204 37.7953 40.9518 37.809 40.8879 37.8356C40.8239 37.8622 40.7659 37.9011 40.717 37.9502ZM42.2254 36.6068C42.1266 36.7058 42.0713 36.84 42.0714 36.9799C42.0716 37.1197 42.1274 37.2538 42.2264 37.3525C42.69 37.8149 42.9453 38.4296 42.9453 39.0834C42.9453 39.7372 42.69 40.3519 42.2264 40.8142C42.1274 40.913 42.0716 41.047 42.0714 41.1869C42.0713 41.3267 42.1266 41.4609 42.2254 41.56C42.2743 41.6092 42.3325 41.6482 42.3966 41.6748C42.4606 41.7014 42.5294 41.715 42.5987 41.7149C42.6679 41.715 42.7364 41.7015 42.8003 41.6751C42.8642 41.6487 42.9222 41.6099 42.9711 41.561C43.6346 40.8993 43.9999 40.0194 43.9999 39.0834C43.9999 38.1474 43.6346 37.2675 42.9711 36.6057C42.9221 36.5568 42.8639 36.5181 42.7999 36.4917C42.7359 36.4652 42.6673 36.4517 42.598 36.4518C42.5288 36.4519 42.4602 36.4656 42.3963 36.4922C42.3323 36.5188 42.2743 36.5578 42.2254 36.6068ZM26.0013 19.6162C25.9285 19.6162 25.8565 19.6313 25.7897 19.6605C25.723 19.6897 25.6631 19.7325 25.6137 19.786C25.2601 20.1693 22.1587 23.5883 22.1587 25.5682C22.1587 27.687 23.8825 29.4107 26.0013 29.4107C28.1201 29.4107 29.8438 27.687 29.8438 25.5682C29.8438 23.5883 26.7425 20.1693 26.3888 19.786C26.3395 19.7325 26.2796 19.6897 26.2129 19.6605C26.1462 19.6313 26.0742 19.6162 26.0013 19.6162ZM26.0013 28.3561C24.4641 28.3561 23.2134 27.1055 23.2134 25.5682C23.2134 24.5043 24.7908 22.3301 26.0013 20.9351C27.2118 22.3301 28.7892 24.5043 28.7892 25.5682C28.7892 27.1055 27.5386 28.3561 26.0013 28.3561Z" fill="white"/>
<path d="M42.4195 17.4183C41.7329 17.4183 41.1471 17.8584 40.9295 18.4714H32.7039C31.3807 17.0216 29.5945 16.0011 27.5818 15.6462V13.4459H33.4963C34.3678 13.4459 35.0768 12.7369 35.0768 11.8654C35.0768 10.9939 34.3678 10.2849 33.4963 10.2849H22.3556C22.0643 10.2849 21.8282 10.521 21.8282 10.8123C21.8282 11.1036 22.0643 11.3396 22.3556 11.3396H33.4963C33.7862 11.3396 34.0221 11.5754 34.0221 11.8654C34.0221 12.1554 33.7863 12.3912 33.4963 12.3912H18.5063C18.2164 12.3912 17.9805 12.1554 17.9805 11.8654C17.9805 11.5754 18.2163 11.3396 18.5063 11.3396H19.8808C20.172 11.3396 20.4081 11.1036 20.4081 10.8123C20.4081 10.521 20.172 10.2849 19.8808 10.2849H18.5063C17.6349 10.2849 16.9258 10.9939 16.9258 11.8654C16.9258 12.7369 17.6348 13.4459 18.5063 13.4459H24.4209V15.6462C22.4081 16.0011 20.6219 17.0216 19.2987 18.4714H15.027C14.7357 18.4714 14.4996 18.7074 14.4996 18.9987C14.4996 19.29 14.7357 19.5261 15.027 19.5261H18.4692C17.495 20.9722 16.9258 22.7129 16.9258 24.5839C16.9258 26.4827 17.512 28.2473 18.513 29.7061H11.1609V19.526H12.5653C12.8565 19.526 13.0926 19.29 13.0926 18.9987C13.0926 18.7074 12.8565 18.4713 12.5653 18.4713H11.0704C10.8528 17.8583 10.2671 17.4182 9.58041 17.4182C8.70896 17.4183 8 18.1272 8 18.9987V30.2333C8 31.1048 8.70896 31.8138 9.58048 31.8138C10.2671 31.8138 10.8529 31.3736 11.0705 30.7606H19.358C20.9042 32.4225 23.0647 33.5053 25.474 33.6441V36.4517H23.8916C23.7517 36.4517 23.6176 36.5073 23.5187 36.6062C23.4198 36.7051 23.3643 36.8392 23.3643 36.9791V38.556H12.7919C12.5007 38.556 12.2646 38.7921 12.2646 39.0834C12.2646 39.3747 12.5007 39.6107 12.7919 39.6107H23.3642V41.1876C23.3642 41.3275 23.4198 41.4616 23.5187 41.5605C23.6175 41.6594 23.7517 41.715 23.8915 41.715H28.1111C28.2509 41.715 28.3851 41.6594 28.484 41.5605C28.5828 41.4616 28.6384 41.3275 28.6384 41.1876V39.6107H39.2081C39.4993 39.6107 39.7354 39.3747 39.7354 39.0834C39.7354 38.7921 39.4993 38.556 39.2081 38.556H28.6384V36.9791C28.6384 36.8392 28.5828 36.7051 28.484 36.6062C28.3851 36.5073 28.2509 36.4517 28.1111 36.4517H26.5287V33.6441C28.9381 33.5053 31.0985 32.4224 32.6447 30.7606H36.7613C37.0526 30.7606 37.2887 30.5246 37.2887 30.2333C37.2887 29.942 37.0526 29.7059 36.7613 29.7059H33.4896C34.4906 28.2472 35.0768 26.4827 35.0768 24.5837C35.0768 22.7127 34.5076 20.9721 33.5334 19.5259H40.8391V29.7059H39.1996C38.9083 29.7059 38.6722 29.9419 38.6722 30.2332C38.6722 30.5245 38.9083 30.7605 39.1996 30.7605H40.9296C41.1472 31.3735 41.7329 31.8137 42.4196 31.8137C43.291 31.8137 44.0001 31.1047 44.0001 30.2332V18.9987C44 18.1272 43.291 17.4183 42.4195 17.4183ZM9.58048 30.7591C9.29059 30.7591 9.05469 30.5232 9.05469 30.2333V18.9987C9.05469 18.7088 9.29052 18.4729 9.58048 18.4729C9.87045 18.4729 10.1063 18.7087 10.1063 18.9987V30.2333C10.1062 30.5232 9.87038 30.7591 9.58048 30.7591ZM27.5837 40.6603H24.4189V37.5065H27.5837V40.6603ZM25.4755 13.4459H26.5271V15.5234C26.1768 15.5033 25.8257 15.5033 25.4755 15.5234V13.4459H25.4755ZM26.0013 32.6046C21.5787 32.6046 17.9806 29.0065 17.9806 24.5838C17.9806 20.1611 21.5787 16.563 26.0013 16.563C30.424 16.563 34.0221 20.1611 34.0221 24.5838C34.0221 29.0065 30.424 32.6046 26.0013 32.6046ZM42.9453 30.2333C42.9453 30.5232 42.7095 30.7591 42.4195 30.7591C42.1295 30.7591 41.8937 30.5233 41.8937 30.2333V18.9987C41.8937 18.7088 42.1295 18.4729 42.4195 18.4729C42.7095 18.4729 42.9453 18.7087 42.9453 18.9987V30.2333Z" fill="white"/>
</g>
<defs>
<clipPath id="clip0_302_545">
<rect width="36" height="36" fill="white" transform="translate(8 8)"/>
</clipPath>
</defs>
</svg>
