<svg width="52" height="52" viewBox="0 0 52 52" fill="none" xmlns="http://www.w3.org/2000/svg">
<rect width="52" height="52" fill="white" fill-opacity="0.15"/>
<path d="M20.0441 33.5491C20.0441 33.6889 20.0996 33.8229 20.1984 33.9217C20.2972 34.0205 20.4312 34.076 20.571 34.076H36.5568C37.4193 34.076 38.1211 33.3742 38.1211 32.5116V19.498C38.1211 18.6354 37.4193 17.9336 36.5568 17.9336H15.4427C14.5802 17.9336 13.8784 18.6354 13.8784 19.498V32.5116C13.8784 33.3742 14.5802 34.076 15.4427 34.076H18.3258C18.6169 34.076 18.8527 33.8402 18.8527 33.5492C18.8527 33.2583 18.6169 33.0224 18.3258 33.0224H15.4427C15.1611 33.0224 14.9321 32.7932 14.9321 32.5116V19.498C14.9321 19.2164 15.1611 18.9873 15.4427 18.9873H36.5568C36.8384 18.9873 37.0674 19.2164 37.0674 19.498V32.5116C37.0674 32.7932 36.8384 33.0224 36.5568 33.0224H20.571C20.5018 33.0224 20.4333 33.036 20.3694 33.0625C20.3054 33.0889 20.2474 33.1277 20.1984 33.1766C20.1495 33.2256 20.1107 33.2836 20.0842 33.3475C20.0578 33.4114 20.0441 33.48 20.0441 33.5491Z" fill="white"/>
<path d="M26.3586 20.212C26.2042 20.1682 26.0393 20.1812 25.8936 20.2486C25.748 20.3161 25.6314 20.4335 25.5649 20.5796L23.0002 26.164C22.9436 26.2865 22.9188 26.4214 22.9282 26.556C22.9376 26.6906 22.9809 26.8207 23.0541 26.9341C23.1267 27.0479 23.2268 27.1415 23.3452 27.2062C23.4636 27.2709 23.5965 27.3047 23.7314 27.3044H24.8338L24.2949 30.9512C24.2681 31.1279 24.3055 31.3084 24.4003 31.46C24.4952 31.6115 24.6411 31.7241 24.8117 31.7773C24.8876 31.8014 24.9645 31.8128 25.0403 31.8128C25.3175 31.8128 25.5786 31.6586 25.7094 31.3984L28.7169 25.4151C28.779 25.2926 28.8085 25.1561 28.8026 25.0188C28.7966 24.8816 28.7554 24.7481 28.6829 24.6314C28.6112 24.5142 28.5105 24.4175 28.3906 24.3505C28.2706 24.2835 28.1354 24.2486 27.998 24.2491H26.4644L26.8464 20.9379C26.8654 20.7785 26.8266 20.6177 26.7371 20.4845C26.6476 20.3513 26.5133 20.2546 26.3586 20.212ZM27.5941 25.3028L25.6119 29.2463L25.9653 26.8547C25.9764 26.7798 25.9711 26.7034 25.95 26.6307C25.9289 26.558 25.8924 26.4908 25.8429 26.4335C25.7935 26.3762 25.7322 26.3302 25.6634 26.2987C25.5946 26.2671 25.5198 26.2508 25.4441 26.2508H24.1198L25.5261 23.1886L25.35 24.7157C25.3415 24.7895 25.3486 24.8642 25.371 24.9351C25.3934 25.0059 25.4306 25.0712 25.48 25.1267C25.5294 25.1821 25.59 25.2265 25.6578 25.2569C25.7256 25.2872 25.7991 25.3029 25.8734 25.3029H27.5941V25.3028ZM33.6737 41.2415C33.534 41.2415 33.4 41.297 33.3012 41.3958C33.2024 41.4946 33.1469 41.6286 33.1469 41.7683V43.473C33.1469 43.7639 33.3827 43.9998 33.6737 43.9998C33.9648 43.9998 34.2006 43.7639 34.2006 43.473V41.7683C34.2006 41.6285 34.145 41.4946 34.0462 41.3958C33.9474 41.297 33.8135 41.2415 33.6737 41.2415Z" fill="white"/>
<path d="M39.7016 21.7609C39.8413 21.7609 39.9753 21.7054 40.0741 21.6066C40.1729 21.5078 40.2284 21.3738 40.2284 21.2341V19.498C40.2284 17.4734 38.5814 15.8263 36.5568 15.8263H34.7776V14.7585C34.7776 14.3405 34.544 13.9761 34.2005 13.7887V8.52683C34.2005 8.23588 33.9647 8 33.6737 8C33.3827 8 33.1469 8.23588 33.1469 8.52683V13.6546H32.1335V8.52683C32.1335 8.23588 31.8977 8 31.6067 8C31.3157 8 31.0799 8.23588 31.0799 8.52683V13.7887C30.7364 13.9761 30.5028 14.3405 30.5028 14.7585V15.8263H28.1371V14.7585C28.1371 14.3405 27.9035 13.9761 27.56 13.7887V8.52683C27.56 8.23588 27.3242 8 27.0332 8C26.7422 8 26.5064 8.23588 26.5064 8.52683V13.6546H25.493V8.52683C25.493 8.23588 25.2572 8 24.9662 8C24.6752 8 24.4394 8.23588 24.4394 8.52683V13.7887C24.0959 13.9761 23.8623 14.3405 23.8623 14.7585V15.8263H21.4966V14.7585C21.4966 14.3405 21.263 13.9761 20.9195 13.7887V8.52683C20.9195 8.23588 20.6837 8 20.3927 8C20.1017 8 19.8659 8.23588 19.8659 8.52683V13.6546H18.8526V8.52683C18.8526 8.23588 18.6167 8 18.3257 8C18.0347 8 17.7989 8.23588 17.7989 8.52683V13.7887C17.4554 13.9761 17.2218 14.3405 17.2218 14.7585V15.8263H15.4426C13.4181 15.8263 11.771 17.4734 11.771 19.498V32.5116C11.771 34.5362 13.4181 36.1833 15.4426 36.1833H17.2218V37.2415C17.2218 37.6595 17.4554 38.0239 17.7989 38.2113V43.4732C17.7989 43.7641 18.0347 44 18.3257 44C18.6167 44 18.8526 43.7641 18.8526 43.4732V38.3454H19.8659V43.4732C19.8659 43.7641 20.1017 44 20.3927 44C20.6837 44 20.9195 43.7641 20.9195 43.4732V38.2113C21.263 38.0239 21.4966 37.6595 21.4966 37.2415V36.1833H23.8623V37.2415C23.8623 37.6595 24.0959 38.0239 24.4394 38.2113V43.4732C24.4394 43.7641 24.6752 44 24.9662 44C25.2572 44 25.493 43.7641 25.493 43.4732V38.3454H26.5064V43.4732C26.5064 43.7641 26.7422 44 27.0332 44C27.3242 44 27.56 43.7641 27.56 43.4732V38.2113C27.9035 38.0239 28.1371 37.6595 28.1371 37.2415V36.1833H30.5028V37.2415C30.5028 37.6595 30.7364 38.0239 31.0799 38.2113V43.4732C31.0799 43.7641 31.3157 44 31.6067 44C31.8977 44 32.1335 43.7641 32.1335 43.4732V38.3454H33.1469V39.5233C33.1469 39.8142 33.3827 40.0501 33.6737 40.0501C33.9647 40.0501 34.2005 39.8142 34.2005 39.5233V38.2113C34.544 38.024 34.7776 37.6596 34.7776 37.2416V36.1833H36.5568C38.5813 36.1833 40.2284 34.5363 40.2284 32.5117V23.4792C40.2284 23.1882 39.9926 22.9524 39.7016 22.9524C39.4106 22.9524 39.1748 23.1882 39.1748 23.4792V32.5116C39.1748 33.9551 38.0004 35.1295 36.5568 35.1295H15.4428C13.9992 35.1295 12.8248 33.9551 12.8248 32.5116V19.498C12.8248 18.0544 13.9992 16.88 15.4428 16.88H36.5568C38.0004 16.88 39.1748 18.0544 39.1748 19.498V21.2341C39.1748 21.3738 39.2303 21.5078 39.3291 21.6066C39.4279 21.7054 39.5619 21.7609 39.7016 21.7609ZM20.4431 37.2415C20.4431 37.2692 20.4206 37.2917 20.3929 37.2917H18.3259C18.3125 37.2917 18.2998 37.2864 18.2903 37.277C18.2809 37.2676 18.2756 37.2548 18.2756 37.2415V36.1833H20.443L20.4431 37.2415ZM27.0835 37.2415C27.0835 37.2692 27.061 37.2917 27.0333 37.2917H24.9663C24.953 37.2917 24.9402 37.2864 24.9308 37.277C24.9214 37.2676 24.9161 37.2548 24.9161 37.2415V36.1833H27.0834V37.2415H27.0835ZM33.7239 37.2415C33.7239 37.2692 33.7014 37.2917 33.6737 37.2917H31.6067C31.5934 37.2917 31.5806 37.2864 31.5712 37.277C31.5618 37.2676 31.5565 37.2548 31.5565 37.2415V36.1833H33.7239V37.2415H33.7239ZM31.5566 14.7585C31.5566 14.7308 31.579 14.7083 31.6068 14.7083H33.6738C33.7015 14.7083 33.724 14.7308 33.724 14.7585V15.8263H31.5566V14.7585H31.5566ZM24.9161 14.7585C24.9161 14.7308 24.9386 14.7083 24.9664 14.7083H27.0333C27.0611 14.7083 27.0836 14.7308 27.0836 14.7585V15.8263H24.9162V14.7585H24.9161ZM18.2757 14.7585C18.2757 14.7308 18.2982 14.7083 18.3259 14.7083H20.3929C20.4207 14.7083 20.4432 14.7308 20.4432 14.7585V15.8263H18.2758L18.2757 14.7585Z" fill="white"/>
</svg>
