<svg width="52" height="52" viewBox="0 0 52 52" fill="none" xmlns="http://www.w3.org/2000/svg">
<rect width="52" height="52" fill="white" fill-opacity="0.15"/>
<g clip-path="url(#clip0_302_460)">
<path d="M11.731 39.5657C11.3427 39.5657 11.0278 39.8805 11.0278 40.2688C11.0278 40.6571 11.3427 40.9719 11.731 40.9719C12.1192 40.9719 12.4341 40.6571 12.4341 40.2688C12.4341 39.8805 12.1192 39.5657 11.731 39.5657Z" fill="#00B1C9"/>
<path d="M43.2952 36.5377H15.4623V8.70474C15.4623 8.31556 15.1467 8 14.7575 8H8.70474C8.31556 8.00007 8 8.31563 8 8.70474V43.2951C8 43.6844 8.31556 44 8.70474 44H43.2952C43.6844 44 44 43.6844 44 43.2952V37.2425C44 36.8532 43.6844 36.5377 43.2952 36.5377ZM14.0527 9.40963V36.5377H9.40955V33.5413H11.8777C12.267 33.5413 12.5825 33.2257 12.5825 32.8365C12.5825 32.4473 12.267 32.1317 11.8777 32.1317H9.40955V30.7234H10.6853C11.0745 30.7234 11.3901 30.4078 11.3901 30.0186C11.3901 29.6294 11.0745 29.3138 10.6853 29.3138H9.40955V27.9054H11.8777C12.267 27.9054 12.5825 27.5898 12.5825 27.2006C12.5825 26.8114 12.267 26.4958 11.8777 26.4958H9.40955V25.0873H10.6853C11.0745 25.0873 11.3901 24.7718 11.3901 24.3826C11.3901 23.9934 11.0745 23.6778 10.6853 23.6778H9.40955V22.2694H11.8777C12.267 22.2694 12.5825 21.9539 12.5825 21.5647C12.5825 21.1754 12.267 20.8599 11.8777 20.8599H9.40955V19.4514H10.6853C11.0745 19.4514 11.3901 19.1359 11.3901 18.7467C11.3901 18.3575 11.0745 18.0418 10.6853 18.0418H9.40955V16.6335H11.8777C12.267 16.6335 12.5825 16.318 12.5825 15.9287C12.5825 15.5395 12.267 15.2239 11.8777 15.2239H9.40955V13.8155H10.8485C11.2377 13.8155 11.5532 13.5001 11.5532 13.1107C11.5532 12.7216 11.2377 12.406 10.8485 12.406H9.40955V9.40963H14.0527ZM42.5904 42.5904H39.594V40.1222C39.594 39.7329 39.2784 39.4175 38.8892 39.4175C38.4999 39.4175 38.1845 39.7329 38.1845 40.1222V42.5904H36.7761V41.3146C36.7761 40.9254 36.4605 40.6098 36.0713 40.6098C35.682 40.6098 35.3665 40.9254 35.3665 41.3146V42.5904H33.958V40.1222C33.958 39.7329 33.6425 39.4175 33.2532 39.4175C32.864 39.4175 32.5485 39.7329 32.5485 40.1222V42.5904H31.1401V41.3146C31.1401 40.9254 30.8246 40.6098 30.4353 40.6098C30.0461 40.6098 29.7306 40.9254 29.7306 41.3146V42.5904H28.3221V40.1222C28.3221 39.7329 28.0066 39.4175 27.6174 39.4175C27.2282 39.4175 26.9126 39.7329 26.9126 40.1222V42.5904H25.5042V41.3146C25.5042 40.9254 25.1886 40.6098 24.7994 40.6098C24.4102 40.6098 24.0946 40.9254 24.0946 41.3146V42.5904H22.6862V40.1222C22.6862 39.7329 22.3707 39.4175 21.9815 39.4175C21.5923 39.4175 21.2767 39.7329 21.2767 40.1222V42.5904H19.8683V41.1514C19.8683 40.7622 19.5528 40.4467 19.1635 40.4467C18.7743 40.4467 18.4588 40.7622 18.4588 41.1514V42.5904H9.40955V37.9472H42.5904V42.5904Z" fill="#00B1C9"/>
<path d="M17.611 35.1182H41.1592C41.5484 35.1182 41.864 34.8026 41.864 34.4134V10.8651C41.864 10.4759 41.5484 10.1604 41.1592 10.1604H39.1164C38.7271 10.1604 38.4115 10.4759 38.4115 10.8651C38.4115 11.2544 38.7271 11.57 39.1164 11.57H40.4545V21.9344H37.9203C37.531 21.9344 37.2155 22.25 37.2155 22.6392C37.2155 23.0285 37.531 23.344 37.9203 23.344H40.4545V33.7086H30.0899V31.1743C30.0899 30.7852 29.7743 30.4696 29.385 30.4696C28.9959 30.4696 28.6803 30.7852 28.6803 31.1743V33.7086H18.3157V23.3441H20.8499C21.2393 23.3441 21.5547 23.0286 21.5547 22.6393C21.5547 22.2501 21.2393 21.9345 20.8499 21.9345H18.3157V11.57H28.6803V14.1042C28.6803 14.4934 28.9959 14.809 29.385 14.809C29.7743 14.809 30.0899 14.4934 30.0899 14.1042V11.57H32.6503C33.0395 11.57 33.355 11.2545 33.355 10.8652C33.355 10.476 33.0395 10.1605 32.6503 10.1605H17.611C17.2218 10.1605 16.9062 10.476 16.9062 10.8652V34.4135C16.9062 34.8027 17.2218 35.1182 17.611 35.1182Z" fill="#00B1C9"/>
<path d="M30.0897 18.1681C30.0897 17.7788 29.7741 17.4633 29.3849 17.4633C28.9956 17.4633 28.6801 17.7788 28.6801 18.1681V21.9344H24.9138C24.5246 21.9344 24.209 22.2501 24.209 22.6393C24.209 23.0285 24.5246 23.344 24.9138 23.344H28.6801V27.1105C28.6801 27.4997 28.9956 27.8152 29.3849 27.8152C29.7741 27.8152 30.0897 27.4997 30.0897 27.1105V23.344H33.8561C34.2453 23.344 34.5609 23.0285 34.5609 22.6393C34.5609 22.2501 34.2453 21.9344 33.8561 21.9344H30.0897V18.1681ZM35.8879 11.57C36.2771 11.57 36.5926 11.2544 36.5926 10.8652C36.5926 10.4759 36.2771 10.1604 35.8879 10.1604C35.4987 10.1604 35.1831 10.4759 35.1831 10.8652C35.1831 11.2544 35.4987 11.57 35.8879 11.57Z" fill="#00B1C9"/>
</g>
<defs>
<clipPath id="clip0_302_460">
<rect width="36" height="36" fill="white" transform="translate(8 8)"/>
</clipPath>
</defs>
</svg>
