<svg width="52" height="52" viewBox="0 0 52 52" fill="none" xmlns="http://www.w3.org/2000/svg">
<rect width="52" height="52" fill="white" fill-opacity="0.15"/>
<g clip-path="url(#clip0_302_561)">
<path d="M36.4171 38.7151C34.8097 38.8976 33.3207 39.4712 32.1112 40.374L30.4152 41.6397C27.7076 43.6607 23.2246 43.2842 20.4217 40.8C18.8776 39.4312 16.7801 38.6774 14.5159 38.6774C12.0075 38.6774 9.68504 39.6134 8.14393 41.2453C8.09638 41.2956 8.05922 41.3549 8.03456 41.4196C8.0099 41.4843 7.99823 41.5532 8.00022 41.6225C8.0022 41.6917 8.0178 41.7599 8.04613 41.8231C8.07445 41.8863 8.11495 41.9433 8.16531 41.9908C8.21566 42.0384 8.27489 42.0755 8.33961 42.1002C8.40433 42.1248 8.47327 42.1365 8.5425 42.1345C8.61172 42.1325 8.67988 42.1169 8.74308 42.0886C8.80628 42.0603 8.86328 42.0198 8.91083 41.9694C10.2536 40.5476 12.2965 39.7322 14.5159 39.7322C16.5222 39.7322 18.3712 40.3917 19.7222 41.5893C21.1858 42.8865 23.2023 43.7471 25.2547 43.9507C25.5775 43.9827 25.8972 43.9985 26.2134 43.9985C28.0316 43.9985 29.7209 43.4742 31.0461 42.485L32.7421 41.2193C33.8022 40.4281 35.1141 39.9246 36.5361 39.7632C36.6049 39.7554 36.6715 39.7341 36.7321 39.7005C36.7927 39.6669 36.8461 39.6218 36.8892 39.5676C36.9324 39.5134 36.9644 39.4513 36.9835 39.3847C37.0026 39.3181 37.0085 39.2484 37.0006 39.1796C36.9928 39.1108 36.9715 39.0442 36.938 38.9836C36.9044 38.923 36.8593 38.8696 36.8051 38.8265C36.7509 38.7834 36.6887 38.7513 36.6222 38.7322C36.5556 38.7131 36.4859 38.7073 36.4171 38.7151ZM39.018 38.7673C38.8807 38.7479 38.7413 38.7834 38.63 38.8661C38.5187 38.9488 38.4444 39.072 38.4232 39.209C38.4021 39.3461 38.4357 39.4859 38.5169 39.5983C38.5981 39.7108 38.7203 39.7867 38.8571 39.8096C40.5382 40.0693 42.0424 40.8143 43.0924 41.9073C43.1897 42.0066 43.3222 42.0635 43.4612 42.0657C43.6001 42.0678 43.7343 42.0149 43.8345 41.9186C43.9348 41.8223 43.9929 41.6904 43.9964 41.5514C43.9998 41.4125 43.9482 41.2778 43.8529 41.1767C42.6436 39.9177 40.9265 39.0621 39.018 38.7673ZM32.1145 36.5753L31.6836 36.8916C31.6026 36.6806 31.5093 36.502 31.4245 36.3394C31.2145 35.9585 31.0393 35.5453 31.0638 34.8799L32.742 33.6276C35.8009 31.3444 40.5406 31.6595 43.0923 34.3156C43.1896 34.4149 43.3221 34.4718 43.4611 34.4739C43.6001 34.476 43.7342 34.4232 43.8345 34.3269C43.9347 34.2306 43.9928 34.0986 43.9963 33.9596C43.9997 33.8207 43.9482 33.686 43.8528 33.5849C40.9515 30.5648 35.5743 30.1974 32.1111 32.7823L31.649 33.1273C31.792 32.784 31.9062 32.3577 31.9062 31.7315C31.9062 30.7937 31.6502 30.3033 31.4245 29.8705C31.2222 29.4828 31.0624 29.1766 31.0624 28.4974C31.0624 28.3441 31.0707 28.2049 31.0877 28.0751C32.1422 28.0614 32.996 27.1998 32.996 26.1421V24.4546C32.996 23.5334 32.3482 22.761 31.4843 22.5679C31.4843 22.5679 31.4838 19.796 31.4828 19.7344C31.4776 19.4431 31.238 19.2101 30.9462 19.2164C30.877 19.2176 30.8086 19.2324 30.7451 19.2601C30.6816 19.2877 30.6242 19.3275 30.5761 19.3774C30.528 19.4272 30.4902 19.486 30.4648 19.5504C30.4394 19.6149 30.427 19.6837 30.4282 19.7529C30.4292 19.8083 30.4297 22.521 30.4297 22.521H21.6406V20.6228C21.6406 19.9444 21.0886 19.3924 20.4102 19.3924L13.5547 19.3922V14.5405C13.5547 14.2492 13.3187 14.0132 13.0273 14.0132C12.736 14.0132 12.5 14.2492 12.5 14.5405V20.0601C12.5 20.5447 12.1058 20.939 11.6211 20.939H9.9336C9.44893 20.939 9.05469 20.5447 9.05469 20.0601V9.93506C9.05469 9.45039 9.44893 9.05615 9.9336 9.05615H11.6211C12.1058 9.05615 12.5 9.45039 12.5 9.93506V12.0796C12.5 12.3709 12.736 12.6069 13.0273 12.6069C13.3187 12.6069 13.5547 12.3709 13.5547 12.0796V10.603H14.6094V12.5366C14.6094 13.0213 15.0036 13.4155 15.4883 13.4155H20.2695C20.7542 13.4155 21.1484 13.0213 21.1484 12.5366V10.6034C25.3065 10.6191 28.981 13.419 30.0917 17.4236C30.1687 17.7066 30.4677 17.8688 30.7408 17.7909C30.8756 17.7535 30.99 17.6641 31.0589 17.5423C31.1277 17.4206 31.1454 17.2765 31.1081 17.1417C29.8681 12.6708 25.7581 9.54834 21.1133 9.54834H13.5158C13.3362 8.66683 12.5548 8.00146 11.6211 8.00146H9.9336C8.86745 8.00146 8 8.86884 8 9.93506V20.0601C8 21.1262 8.86745 21.9937 9.9336 21.9937H11.6211C12.5548 21.9937 13.3361 21.3283 13.5157 20.4468L20.4102 20.4471C20.5071 20.4471 20.5859 20.5259 20.5859 20.6228V22.5536C19.6871 22.7195 19.0039 23.5085 19.0039 24.4546V26.1421C19.0039 26.9472 19.4988 27.6388 20.2001 27.9292C20.1755 28.1176 20.1635 28.3074 20.1641 28.4974C20.1641 29.4352 20.42 29.9257 20.6458 30.3584C20.8481 30.7462 21.0078 31.0523 21.0078 31.7315C21.0061 32.5253 20.7977 32.7934 20.5404 33.3107C20.5004 33.2768 20.4606 33.2427 20.4218 33.2083C17.0439 30.2137 11.1918 30.426 8.14393 33.6536C8.09638 33.704 8.05922 33.7632 8.03456 33.8279C8.0099 33.8927 7.99823 33.9616 8.00022 34.0308C8.0022 34.1001 8.0178 34.1682 8.04613 34.2314C8.07445 34.2946 8.11495 34.3516 8.16531 34.3992C8.21566 34.4467 8.27489 34.4839 8.33961 34.5085C8.40433 34.5332 8.47327 34.5449 8.5425 34.5429C8.61172 34.5409 8.67988 34.5253 8.74308 34.497C8.80628 34.4686 8.86328 34.4281 8.91083 34.3778C11.5914 31.5389 16.7444 31.3576 19.7222 33.9976C19.8771 34.1346 20.0368 34.2661 20.2011 34.3917C20.1759 34.5821 20.1635 34.774 20.1641 34.9661C20.1641 35.8906 20.4141 36.4322 20.6345 36.91C20.695 37.041 20.7539 37.1687 20.8062 37.302C20.6419 37.1845 20.5118 37.0836 20.4218 37.0038C17.0437 34.0089 11.1916 34.2216 8.14386 37.4499C8.0496 37.5519 7.99938 37.687 8.00413 37.8258C8.00888 37.9647 8.0682 38.096 8.16921 38.1913C8.27023 38.2867 8.40478 38.3383 8.54364 38.3351C8.68251 38.3318 8.81448 38.2739 8.9109 38.1739C11.5912 35.3345 16.7443 35.153 19.7222 37.793C19.9167 37.9655 20.2233 38.1906 20.6335 38.4621C21.2558 38.9054 22.1604 38.2877 21.9784 37.5466C21.8863 37.1054 21.7301 36.7667 21.5922 36.468C21.3919 36.0339 21.2188 35.659 21.2188 34.9662C21.2188 34.2869 21.3786 33.9805 21.5809 33.5928C21.8066 33.1601 22.0626 32.6696 22.0626 31.7316C22.0626 30.7938 21.8066 30.3033 21.5809 29.8706C21.3786 29.4828 21.2188 29.1767 21.2188 28.4975C21.2188 28.3445 21.2272 28.2055 21.2441 28.0758H23.2578C23.5491 28.0758 23.7852 27.8397 23.7852 27.5484C23.7852 27.2571 23.5491 27.0211 23.2578 27.0211C23.2578 27.0211 20.8483 27.0094 20.8085 27.0105C20.385 26.9477 20.0586 26.5829 20.0586 26.1422V24.4547C20.0586 23.97 20.4528 23.5758 20.9375 23.5758H31.0625C31.5472 23.5758 31.9414 23.97 31.9414 24.4547V26.1422C31.9414 26.6268 31.5472 27.0211 31.0625 27.0211H25.7188C25.4274 27.0211 25.1914 27.2571 25.1914 27.5484C25.1914 27.8397 25.4274 28.0758 25.7188 28.0758H30.0272C30.0141 28.216 30.0076 28.3567 30.0078 28.4975C30.0078 29.4353 30.2638 29.9257 30.4895 30.3585C30.6918 30.7462 30.8516 31.0524 30.8516 31.7316C30.8516 32.4109 30.6918 32.7173 30.4895 33.105C30.2465 33.5028 29.9779 34.2856 30.0078 34.9662C30.0078 35.9041 30.2638 36.3946 30.4895 36.8274C30.5954 37.0304 30.6869 37.2057 30.7526 37.4265C31.2102 38.5036 32.0981 37.977 32.7421 37.4231C35.8011 35.1399 40.5411 35.4553 43.0923 38.1117C43.1896 38.2111 43.3221 38.2681 43.4611 38.2703C43.6001 38.2724 43.7343 38.2196 43.8346 38.1233C43.9349 38.027 43.9931 37.895 43.9965 37.756C43.9999 37.6171 43.9484 37.4823 43.853 37.3812C40.9519 34.3606 35.5748 33.9926 32.1145 36.5753ZM15.6641 12.3608V10.603H20.0938V12.3608H15.6641Z" fill="white"/>
</g>
<defs>
<clipPath id="clip0_302_561">
<rect width="36" height="36" fill="white" transform="translate(8 8)"/>
</clipPath>
</defs>
</svg>
