<svg width="52" height="52" viewBox="0 0 52 52" fill="none" xmlns="http://www.w3.org/2000/svg">
<rect width="52" height="52" fill="white" fill-opacity="0.15"/>
<g clip-path="url(#clip0_302_513)">
<path d="M23.1821 33.3268V16.4188H34.4541V33.3268" stroke="white" stroke-width="1.2" stroke-miterlimit="10"/>
<path d="M36.7088 33.3268V18.6732H34.4544M23.1824 18.6732H20.928V33.3268M19.8008 33.3268H37.836M40.0904 14.1644H34.4544V8.52838M20.3644 11.3464H21.4916M22.6188 11.3464H23.746M24.8732 11.3464H26.0004M13.0376 35.5812V20.9276H17.5464V35.5812M13.0376 23.182H15.8556M13.0376 29.9452H15.8556M13.0376 25.4364H14.7284M13.0376 27.6908H14.7284M13.0376 32.1996H14.7284M13.0376 34.454H14.7284M17.8282 42.3444H34.4544V37.8356H17.8282M32.2 42.3444V39.5264M25.4368 42.3444V39.5264M29.9456 42.3444V40.6536M27.6912 42.3444V40.6536M23.1824 42.3444V40.6536M20.928 42.3444V40.6536M25.4368 23.182H27.6912V25.4364H25.4368V23.182ZM29.9456 23.182H32.2V25.4364H29.9456V23.182ZM25.4368 27.6908H27.6912V29.9452H25.4368V27.6908ZM29.9456 27.6908H32.2V29.9452H29.9456V27.6908ZM25.4368 18.6732H27.6912V20.9276H25.4368V18.6732ZM29.9456 18.6732H32.2V20.9276H29.9456V18.6732Z" stroke="white" stroke-width="1.2" stroke-miterlimit="10"/>
<path d="M15.2918 41.2172C15.9143 41.2172 16.419 40.7126 16.419 40.09C16.419 39.4675 15.9143 38.9628 15.2918 38.9628C14.6692 38.9628 14.1646 39.4675 14.1646 40.09C14.1646 40.7126 14.6692 41.2172 15.2918 41.2172Z" stroke="white" stroke-miterlimit="10"/>
<path d="M15.2918 43.4716C17.1594 43.4716 18.6734 41.9576 18.6734 40.09C18.6734 38.2224 17.1594 36.7084 15.2918 36.7084C13.4242 36.7084 11.9102 38.2224 11.9102 40.09C11.9102 41.9576 13.4242 43.4716 15.2918 43.4716Z" stroke="white" stroke-miterlimit="10"/>
<path d="M36.1452 37.8356H40.0904V14.1644L34.4544 8.52838H17.5464V19.2368" stroke="white" stroke-width="1.2" stroke-miterlimit="10"/>
</g>
<defs>
<clipPath id="clip0_302_513">
<rect width="36" height="36" fill="white" transform="translate(8 8)"/>
</clipPath>
</defs>
</svg>
