<svg width="52" height="52" viewBox="0 0 52 52" fill="none" xmlns="http://www.w3.org/2000/svg">
<rect width="52" height="52" fill="white" fill-opacity="0.15"/>
<path d="M42.5349 11.8354H36.6121C35.8042 11.8354 35.147 12.4927 35.147 13.3005V15.6H33.5906V14.1978C33.5906 12.8952 32.5308 11.8354 31.2282 11.8354H30.6146C29.312 11.8354 28.2522 12.8952 28.2522 14.1978V15.6H26.8399V14.1978C26.8399 12.8952 25.7801 11.8354 24.4774 11.8354H23.8639C22.5613 11.8354 21.5015 12.8952 21.5015 14.1978V15.6H20.0892V14.1978C20.0892 12.8952 19.0294 11.8354 17.7267 11.8354H17.1132C15.8106 11.8354 14.7508 12.8952 14.7508 14.1978V15.6H13.3383V14.1978C13.3383 12.8952 12.2786 11.8354 10.9759 11.8354H10.3624C9.05977 11.8354 8 12.8952 8 14.1978V24.1843C8 24.3245 8.05572 24.459 8.1549 24.5582C8.25408 24.6574 8.3886 24.7131 8.52886 24.7131C8.66913 24.7131 8.80364 24.6574 8.90283 24.5582C9.00201 24.459 9.05773 24.3245 9.05773 24.1843V14.1978C9.05773 13.4785 9.643 12.8932 10.3624 12.8932H10.9759C11.6953 12.8932 12.2806 13.4785 12.2806 14.1978V37.802C12.2806 38.5214 11.6953 39.1067 10.9759 39.1067H10.3624C9.643 39.1067 9.05773 38.5214 9.05773 37.802V26.2997C9.05773 26.1595 9.00201 26.0249 8.90283 25.9258C8.80364 25.8266 8.66913 25.7709 8.52886 25.7709C8.3886 25.7709 8.25408 25.8266 8.1549 25.9258C8.05572 26.0249 8 26.1595 8 26.2997V37.802C8 39.1046 9.05977 40.1644 10.3624 40.1644H10.9759C12.2786 40.1644 13.3383 39.1046 13.3383 37.802V36.9994H14.7507V37.802C14.7507 39.1046 15.8105 40.1644 17.1131 40.1644H17.7266C19.0293 40.1644 20.089 39.1046 20.089 37.802V36.9994H21.5014V37.802C21.5014 39.1046 22.5612 40.1644 23.8638 40.1644H24.4773C25.78 40.1644 26.8397 39.1046 26.8397 37.802V36.9994H28.2521V37.802C28.2521 39.1046 29.3118 40.1644 30.6145 40.1644H31.228C32.5306 40.1644 33.5904 39.1046 33.5904 37.802V36.9994H35.1468V38.6992C35.1468 39.5071 35.8041 40.1643 36.612 40.1643H42.5348C43.3427 40.1643 43.9999 39.5071 43.9999 38.6992V13.3005C44 12.4927 43.3428 11.8354 42.5349 11.8354ZM13.3383 35.9417V16.6578H14.7507V35.9417L13.3383 35.9417ZM19.0313 37.802C19.0313 38.5214 18.446 39.1067 17.7266 39.1067H17.1131C16.3937 39.1067 15.8084 38.5214 15.8084 37.802V14.1978C15.8084 13.4785 16.3937 12.8932 17.1131 12.8932H17.7266C18.446 12.8932 19.0313 13.4785 19.0313 14.1978V37.802ZM25.7821 37.802C25.7821 38.5214 25.1967 39.1067 24.4773 39.1067H23.8638C23.1445 39.1067 22.5592 38.5214 22.5592 37.802V28.8686C22.5592 28.5765 22.3225 28.3397 22.0303 28.3397C21.7382 28.3397 21.5015 28.5765 21.5015 28.8686V35.9417H20.0891V16.6578H21.5015V26.7531C21.5015 27.0452 21.7382 27.282 22.0303 27.282C22.3225 27.282 22.5592 27.0452 22.5592 26.7531V14.1978C22.5592 13.4785 23.1445 12.8932 23.8638 12.8932H24.4773C25.1967 12.8932 25.7821 13.4785 25.7821 14.1978V37.802ZM26.8398 35.9417V16.6578H28.2521V35.9417L26.8398 35.9417ZM32.5328 37.802C32.5328 38.5214 31.9475 39.1067 31.2281 39.1067H30.6145C29.8951 39.1067 29.3099 38.5214 29.3099 37.802V14.1978C29.3099 13.4785 29.8951 12.8932 30.6145 12.8932H31.2281C31.9475 12.8932 32.5328 13.4785 32.5328 14.1978V37.802ZM33.5905 35.9417V16.6578H35.1469V35.9417L33.5905 35.9417ZM42.9423 38.6993C42.9422 38.8073 42.8992 38.9109 42.8228 38.9872C42.7465 39.0636 42.6429 39.1066 42.5349 39.1067H36.6121C36.5041 39.1066 36.4006 39.0636 36.3242 38.9872C36.2478 38.9109 36.2048 38.8073 36.2047 38.6993V13.3005C36.2048 13.1925 36.2478 13.089 36.3242 13.0126C36.4006 12.9362 36.5041 12.8933 36.6121 12.8932H42.5349C42.6429 12.8933 42.7465 12.9362 42.8228 13.0126C42.8992 13.089 42.9422 13.1925 42.9423 13.3005V38.6993Z" fill="white"/>
<path d="M40.5525 27.4508H38.5946C38.3024 27.4508 38.0657 27.6876 38.0657 27.9797C38.0657 28.2718 38.3024 28.5086 38.5946 28.5086H40.5525C40.6928 28.5086 40.8273 28.4528 40.9265 28.3537C41.0256 28.2545 41.0814 28.12 41.0814 27.9797C41.0814 27.8394 41.0256 27.7049 40.9265 27.6057C40.8273 27.5066 40.6928 27.4508 40.5525 27.4508ZM40.5525 30.1344H38.5946C38.3024 30.1344 38.0657 30.3712 38.0657 30.6632C38.0657 30.9553 38.3024 31.1921 38.5946 31.1921H40.5525C40.6928 31.1921 40.8273 31.1364 40.9265 31.0372C41.0256 30.938 41.0814 30.8035 41.0814 30.6632C41.0814 30.523 41.0256 30.3884 40.9265 30.2893C40.8273 30.1901 40.6928 30.1344 40.5525 30.1344ZM40.5525 32.818H38.5946C38.3024 32.818 38.0657 33.0547 38.0657 33.3468C38.0657 33.6389 38.3024 33.8757 38.5946 33.8757H40.5525C40.6928 33.8757 40.8273 33.82 40.9265 33.7208C41.0256 33.6216 41.0814 33.4871 41.0814 33.3468C41.0814 33.2066 41.0256 33.072 40.9265 32.9729C40.8273 32.8737 40.6928 32.818 40.5525 32.818ZM39.7361 15.0269H39.411C38.5837 15.0269 37.9106 15.6999 37.9106 16.5272V18.2579C37.9106 19.0851 38.5837 19.7582 39.411 19.7582H39.7361C40.5634 19.7582 41.2364 19.0851 41.2364 18.2579V16.5272C41.2365 15.6999 40.5634 15.0269 39.7361 15.0269ZM40.1788 18.2579C40.1786 18.3753 40.132 18.4878 40.049 18.5708C39.966 18.6537 39.8535 18.7004 39.7361 18.7006H39.4111C39.2937 18.7004 39.1812 18.6537 39.0982 18.5708C39.0152 18.4878 38.9686 18.3753 38.9684 18.2579V16.5273C38.9686 16.4099 39.0152 16.2974 39.0982 16.2144C39.1812 16.1315 39.2937 16.0848 39.4111 16.0847H39.7361C39.8535 16.0848 39.966 16.1315 40.049 16.2144C40.132 16.2974 40.1786 16.4099 40.1788 16.5273V18.2579Z" fill="white"/>
</svg>
