<svg width="52" height="52" viewBox="0 0 52 52" fill="none" xmlns="http://www.w3.org/2000/svg">
<rect width="52" height="52" fill="white" fill-opacity="0.15"/>
<g clip-path="url(#clip0_302_435)">
<path d="M40.82 25.2893C40.8955 25.3271 40.9777 25.3496 41.0619 25.3556C41.1461 25.3616 41.2307 25.3509 41.3108 25.3242C41.3909 25.2975 41.4649 25.2553 41.5287 25.2C41.5925 25.1447 41.6448 25.0773 41.6825 25.0018L42.9682 22.4304C43.0113 22.3443 43.0345 22.2496 43.036 22.1533C43.0376 22.057 43.0175 21.9616 42.9773 21.8741C42.937 21.7867 42.8776 21.7093 42.8035 21.6479C42.7294 21.5864 42.6424 21.5424 42.5489 21.5191L39.9775 20.8763C39.6328 20.7874 39.2845 20.9997 39.1984 21.3439C39.1778 21.4259 39.1736 21.511 39.1859 21.5946C39.1983 21.6781 39.2271 21.7584 39.2705 21.8308C39.3139 21.9033 39.3712 21.9664 39.4391 22.0167C39.507 22.0669 39.5841 22.1033 39.666 22.1237L40.5304 22.3399C37.4692 23.7598 34.4404 24.3498 31.5249 24.0743C28.85 23.8231 26.9098 22.9214 25.0361 22.0451V17.0342C26.7877 17.8436 28.7829 18.6798 31.4044 18.9258C31.9135 18.9736 32.4257 18.9977 32.94 18.9977C35.5702 18.9977 38.2627 18.3651 40.9693 17.1247L40.5324 17.9982C40.4947 18.0737 40.4722 18.1559 40.4662 18.2401C40.4602 18.3244 40.4709 18.4089 40.4976 18.489C40.5243 18.5691 40.5665 18.6432 40.6218 18.7069C40.6771 18.7707 40.7445 18.823 40.82 18.8608C40.8955 18.8985 40.9777 18.921 41.0619 18.927C41.1461 18.933 41.2307 18.9223 41.3108 18.8956C41.3909 18.8689 41.4649 18.8267 41.5287 18.7714C41.5925 18.7161 41.6448 18.6487 41.6825 18.5732L42.9682 16.0018C43.0113 15.9157 43.0345 15.821 43.036 15.7247C43.0376 15.6284 43.0175 15.533 42.9773 15.4456C42.937 15.3581 42.8776 15.2808 42.8035 15.2193C42.7294 15.1579 42.6424 15.1139 42.5489 15.0906L39.9775 14.4477C39.6328 14.3595 39.2845 14.5711 39.1984 14.9154C39.1778 14.9973 39.1736 15.0825 39.1859 15.166C39.1983 15.2495 39.2271 15.3298 39.2705 15.4023C39.3139 15.4747 39.3712 15.5378 39.4391 15.5881C39.507 15.6384 39.5841 15.6747 39.666 15.6952L40.5304 15.9113C37.4692 17.3312 34.4404 17.9206 31.5249 17.6457C28.85 17.3946 26.9092 16.4928 25.0361 15.6162V8.64286C25.0361 8.28784 24.7485 8 24.3932 8H19.8932C19.5379 8 19.2503 8.28784 19.2503 8.64286V13.8045C18.8161 13.7751 18.3804 13.7626 17.9301 13.7867C14.9614 13.9471 12.0182 15.2987 9.18191 17.8039C9.11862 17.8598 9.06697 17.9276 9.02991 18.0034C8.99284 18.0793 8.97109 18.1617 8.96589 18.246C8.9607 18.3303 8.97216 18.4147 8.99963 18.4946C9.0271 18.5744 9.07004 18.6481 9.12598 18.7113C9.18617 18.7797 9.26025 18.8344 9.34328 18.8719C9.42631 18.9094 9.51639 18.9287 9.60748 18.9286C9.75872 18.9286 9.91075 18.8755 10.0331 18.7675C12.6466 16.4589 15.3273 15.2149 17.9992 15.0705C18.4264 15.0478 18.8388 15.0611 19.2503 15.093V20.2331C18.8142 20.2035 18.3736 20.1911 17.9301 20.2151C14.9612 20.3755 12.0182 21.7271 9.18175 24.2323C9.11846 24.2882 9.06681 24.356 9.02974 24.4319C8.99268 24.5077 8.97093 24.5901 8.96573 24.6744C8.96054 24.7587 8.972 24.8431 8.99947 24.923C9.02694 25.0028 9.06988 25.0765 9.12582 25.1397C9.18601 25.2081 9.26012 25.2629 9.34318 25.3004C9.42624 25.3379 9.51635 25.3573 9.60748 25.3571C9.75872 25.3571 9.91075 25.3041 10.0331 25.1961C12.6466 22.8874 15.3271 21.6435 17.999 21.499C18.4272 21.4762 18.8391 21.4894 19.2502 21.5212V26.6613C18.8154 26.6316 18.3799 26.6194 17.9299 26.6438C14.961 26.8042 12.018 28.1558 9.18159 30.661C9.1183 30.7169 9.06665 30.7847 9.02958 30.8606C8.99252 30.9365 8.97077 31.0189 8.96557 31.1031C8.96038 31.1874 8.97184 31.2719 8.99931 31.3517C9.02678 31.4316 9.06972 31.5052 9.12566 31.5684C9.18593 31.6368 9.26007 31.6915 9.34315 31.729C9.42623 31.7665 9.51634 31.7858 9.60748 31.7857C9.75872 31.7857 9.91075 31.7327 10.0331 31.6247C12.6466 29.316 15.3271 28.0721 17.999 27.9276C18.4265 27.9049 18.8386 27.9178 19.2502 27.9495V33.0906C18.8161 33.0611 18.3802 33.0488 17.9299 33.0724C14.961 33.2328 12.018 34.5844 9.18159 37.0896C9.1183 37.1455 9.06665 37.2133 9.02958 37.2892C8.99252 37.365 8.97077 37.4474 8.96557 37.5317C8.96038 37.616 8.97184 37.7005 8.99931 37.7803C9.02678 37.8601 9.06972 37.9338 9.12566 37.997C9.18593 38.0654 9.26007 38.1201 9.34315 38.1576C9.42623 38.195 9.51634 38.2144 9.60748 38.2143C9.75872 38.2143 9.91075 38.1612 10.0331 38.0532C12.6466 35.7446 15.3271 34.5007 17.999 34.3562C18.4257 34.3326 18.8386 34.3462 19.2502 34.3784V43.3571C19.2502 43.7122 19.5377 44 19.893 44H24.393C24.7484 44 25.0359 43.7122 25.0359 43.3571V36.3199C26.7877 37.1293 28.7831 37.9652 31.4042 38.2116C31.9133 38.2593 32.4251 38.2834 32.9398 38.2834C35.5701 38.2834 38.2625 37.6508 40.9691 36.4104L40.5323 37.2839C40.456 37.4364 40.4435 37.613 40.4974 37.7747C40.5513 37.9365 40.6673 38.0702 40.8198 38.1465C40.9723 38.2227 41.1489 38.2353 41.3106 38.1813C41.4724 38.1274 41.6061 38.0115 41.6824 37.8589L42.9681 35.2875C43.0111 35.2014 43.0343 35.1067 43.0359 35.0104C43.0374 34.9141 43.0173 34.8187 42.9771 34.7313C42.9368 34.6438 42.8775 34.5665 42.8033 34.505C42.7292 34.4436 42.6422 34.3996 42.5488 34.3763L39.9773 33.7334C39.8955 33.7128 39.8103 33.7086 39.7268 33.721C39.6433 33.7333 39.5631 33.7621 39.4907 33.8055C39.4183 33.849 39.3552 33.9063 39.305 33.9742C39.2548 34.042 39.2185 34.1192 39.1982 34.2011C39.1776 34.283 39.1734 34.3682 39.1858 34.4517C39.1982 34.5353 39.2269 34.6155 39.2703 34.688C39.3138 34.7604 39.3711 34.8235 39.4389 34.8738C39.5068 34.9241 39.5839 34.9604 39.6659 34.9809L40.5302 35.197C37.4691 36.6169 34.4403 37.2066 31.5247 36.9315C28.8495 36.6803 26.9092 35.7783 25.0359 34.902V29.8914C26.7877 30.7007 28.7834 31.5369 31.4042 31.783C31.9133 31.8307 32.4255 31.8548 32.9398 31.8548C35.5701 31.8548 38.2625 31.2222 40.9691 29.9819L40.5323 30.8553C40.4945 30.9309 40.472 31.0131 40.466 31.0973C40.46 31.1815 40.4707 31.2661 40.4974 31.3462C40.5241 31.4263 40.5663 31.5003 40.6216 31.5641C40.677 31.6279 40.7443 31.6801 40.8198 31.7179C40.8953 31.7557 40.9775 31.7782 41.0617 31.7841C41.146 31.7901 41.2305 31.7795 41.3106 31.7528C41.3907 31.7261 41.4648 31.6839 41.5286 31.6285C41.5923 31.5732 41.6446 31.5059 41.6824 31.4304L42.9681 28.8589C43.0111 28.7728 43.0343 28.6781 43.0359 28.5819C43.0374 28.4856 43.0173 28.3902 42.9771 28.3027C42.9368 28.2152 42.8775 28.1379 42.8033 28.0765C42.7292 28.015 42.6422 27.971 42.5488 27.9477L39.9773 27.3048C39.8955 27.2843 39.8103 27.2801 39.7268 27.2924C39.6433 27.3048 39.5631 27.3336 39.4907 27.377C39.4184 27.4205 39.3553 27.4778 39.3051 27.5456C39.2549 27.6135 39.2186 27.6906 39.1982 27.7725C39.1776 27.8544 39.1734 27.9396 39.1858 28.0231C39.1982 28.1067 39.2269 28.187 39.2703 28.2594C39.3138 28.3318 39.3711 28.395 39.4389 28.4452C39.5068 28.4955 39.5839 28.5319 39.6659 28.5523L40.5302 28.7685C37.4691 30.1884 34.4403 30.7774 31.5247 30.5029C28.8498 30.2517 26.909 29.3499 25.0359 28.4737V23.4633C26.7877 24.2726 28.7834 25.1085 31.4042 25.3546C31.9133 25.4023 32.4255 25.4264 32.9398 25.4264C35.5701 25.4264 38.2625 24.7938 40.9691 23.5534L40.5323 24.4269C40.4561 24.5794 40.4436 24.756 40.4975 24.9177C40.5515 25.0794 40.6675 25.2131 40.82 25.2893ZM20.5361 42.7143V40.575L20.8216 40.7179C20.8972 40.7557 20.9794 40.7782 21.0636 40.7841C21.1478 40.7901 21.2324 40.7795 21.3125 40.7528C21.3926 40.7261 21.4666 40.6839 21.5304 40.6285C21.5942 40.5732 21.6464 40.5059 21.6842 40.4304C21.722 40.3549 21.7445 40.2726 21.7505 40.1884C21.7564 40.1042 21.7458 40.0196 21.7191 39.9396C21.6924 39.8595 21.6502 39.7854 21.5949 39.7216C21.5395 39.6578 21.4722 39.6056 21.3967 39.5678L20.5361 39.1374V38.0036L20.8216 38.1465C20.9742 38.2227 21.1507 38.2353 21.3125 38.1813C21.4742 38.1274 21.6079 38.0115 21.6842 37.8589C21.7605 37.7064 21.773 37.5299 21.7191 37.3681C21.6652 37.2064 21.5492 37.0726 21.3967 36.9964L20.5361 36.566V35.4322L20.8216 35.575C20.9742 35.6513 21.1507 35.6638 21.3125 35.6099C21.4742 35.556 21.6079 35.44 21.6842 35.2875C21.7605 35.135 21.773 34.9585 21.7191 34.7967C21.6652 34.6349 21.5492 34.5012 21.3967 34.425L20.5361 33.9946V32.8607L20.8216 33.0036C20.9742 33.0799 21.1507 33.0924 21.3125 33.0385C21.4742 32.9846 21.6079 32.8686 21.6842 32.7161C21.7605 32.5636 21.773 32.387 21.7191 32.2253C21.6652 32.0635 21.5492 31.9298 21.3967 31.8535L20.5361 31.4231V30.2893L20.8216 30.4322C20.9742 30.5084 21.1507 30.521 21.3125 30.4671C21.4742 30.4131 21.6079 30.2972 21.6842 30.1447C21.7605 29.9922 21.773 29.8156 21.7191 29.6538C21.6652 29.4921 21.5492 29.3584 21.3967 29.2821L20.5361 28.8517V27.7179L20.8216 27.8608C20.9742 27.937 21.1507 27.9496 21.3125 27.8956C21.4742 27.8417 21.6079 27.7257 21.6842 27.5732C21.7605 27.4207 21.773 27.2442 21.7191 27.0824C21.6652 26.9206 21.5492 26.7869 21.3967 26.7107L20.5361 26.2803V25.1464L20.8216 25.2893C20.8972 25.3271 20.9794 25.3496 21.0636 25.3556C21.1478 25.3616 21.2324 25.3509 21.3125 25.3242C21.3926 25.2975 21.4666 25.2553 21.5304 25.2C21.5942 25.1447 21.6464 25.0773 21.6842 25.0018C21.722 24.9263 21.7445 24.8441 21.7505 24.7599C21.7564 24.6756 21.7458 24.5911 21.7191 24.511C21.6924 24.4309 21.6502 24.3568 21.5949 24.2931C21.5395 24.2293 21.4722 24.177 21.3967 24.1392L20.5361 23.7089V22.575L20.8216 22.7179C20.8972 22.7557 20.9794 22.7782 21.0636 22.7841C21.1478 22.7901 21.2324 22.7795 21.3125 22.7528C21.3926 22.7261 21.4666 22.6839 21.5304 22.6285C21.5942 22.5732 21.6464 22.5059 21.6842 22.4304C21.722 22.3549 21.7445 22.2726 21.7505 22.1884C21.7564 22.1042 21.7458 22.0196 21.7191 21.9396C21.6924 21.8595 21.6502 21.7854 21.5949 21.7216C21.5395 21.6578 21.4722 21.6056 21.3967 21.5678L20.5361 21.1374V20.0036L20.8216 20.1465C20.9742 20.2227 21.1507 20.2353 21.3125 20.1813C21.4742 20.1274 21.6079 20.0115 21.6842 19.8589C21.7605 19.7064 21.773 19.5299 21.7191 19.3681C21.6652 19.2064 21.5492 19.0726 21.3967 18.9964L20.5361 18.566V17.4322L20.8216 17.575C20.8972 17.6128 20.9794 17.6353 21.0636 17.6413C21.1478 17.6473 21.2324 17.6366 21.3125 17.6099C21.3926 17.5832 21.4666 17.541 21.5304 17.4857C21.5942 17.4304 21.6464 17.363 21.6842 17.2875C21.722 17.212 21.7445 17.1298 21.7505 17.0456C21.7564 16.9614 21.7458 16.8768 21.7191 16.7967C21.6924 16.7166 21.6502 16.6425 21.5949 16.5788C21.5395 16.515 21.4722 16.4627 21.3967 16.425L20.5361 15.9946V14.8607L20.8216 15.0036C20.9742 15.0799 21.1507 15.0924 21.3125 15.0385C21.4742 14.9846 21.6079 14.8686 21.6842 14.7161C21.7605 14.5636 21.773 14.387 21.7191 14.2253C21.6652 14.0635 21.5492 13.9298 21.3967 13.8535L20.5361 13.4231V12.2893L20.8216 12.4322C20.9742 12.5084 21.1507 12.521 21.3125 12.4671C21.4742 12.4131 21.6079 12.2972 21.6842 12.1447C21.7605 11.9922 21.773 11.8156 21.7191 11.6538C21.6652 11.4921 21.5492 11.3584 21.3967 11.2821L20.5361 10.8517V9.28571H23.7503V10.8168L22.82 11.2821C22.7445 11.3199 22.6771 11.3721 22.6218 11.4359C22.5665 11.4997 22.5243 11.5737 22.4976 11.6538C22.4709 11.7339 22.4602 11.8185 22.4662 11.9027C22.4722 11.9869 22.4947 12.0691 22.5324 12.1447C22.5702 12.2202 22.6225 12.2875 22.6862 12.3428C22.75 12.3981 22.8241 12.4404 22.9042 12.4671C22.9843 12.4938 23.0688 12.5044 23.1531 12.4984C23.2373 12.4925 23.3195 12.4699 23.395 12.4322L23.7503 12.2546V13.3884L22.82 13.8537C22.7445 13.8915 22.6771 13.9437 22.6218 14.0075C22.5665 14.0713 22.5243 14.1453 22.4976 14.2254C22.4709 14.3055 22.4602 14.3901 22.4662 14.4743C22.4722 14.5585 22.4947 14.6407 22.5324 14.7163C22.5702 14.7918 22.6225 14.8591 22.6862 14.9144C22.75 14.9697 22.8241 15.012 22.9042 15.0386C22.9843 15.0653 23.0688 15.076 23.1531 15.07C23.2373 15.064 23.3195 15.0415 23.395 15.0038L23.7503 14.826V15.9599L22.82 16.4251C22.6675 16.5014 22.5515 16.6351 22.4976 16.7969C22.4436 16.9586 22.4562 17.1352 22.5324 17.2877C22.6087 17.4402 22.7424 17.5562 22.9042 17.6101C23.0659 17.664 23.2425 17.6515 23.395 17.5752L23.7503 17.3974V18.5313L22.82 18.9966C22.7445 19.0343 22.6771 19.0866 22.6218 19.1504C22.5665 19.2141 22.5243 19.2882 22.4976 19.3683C22.4709 19.4484 22.4602 19.5329 22.4662 19.6172C22.4722 19.7014 22.4947 19.7836 22.5324 19.8591C22.5702 19.9346 22.6225 20.002 22.6862 20.0573C22.75 20.1126 22.8241 20.1548 22.9042 20.1815C22.9843 20.2082 23.0688 20.2189 23.1531 20.2129C23.2373 20.2069 23.3195 20.1844 23.395 20.1466L23.7503 19.969V21.1029L22.82 21.5681C22.6675 21.6444 22.5515 21.7781 22.4976 21.9399C22.4436 22.1016 22.4562 22.2782 22.5324 22.4307C22.6087 22.5832 22.7424 22.6992 22.9042 22.7531C23.0659 22.807 23.2425 22.7945 23.395 22.7182L23.7503 22.5406V23.6745L22.82 24.1397C22.7445 24.1775 22.6771 24.2297 22.6218 24.2935C22.5665 24.3573 22.5243 24.4314 22.4976 24.5115C22.4709 24.5916 22.4602 24.6761 22.4662 24.7603C22.4722 24.8446 22.4947 24.9268 22.5324 25.0023C22.5702 25.0778 22.6225 25.1451 22.6862 25.2005C22.75 25.2558 22.8241 25.298 22.9042 25.3247C22.9843 25.3514 23.0688 25.362 23.1531 25.3561C23.2373 25.3501 23.3195 25.3276 23.395 25.2898L23.7503 25.1122V26.2461L22.82 26.7113C22.7445 26.7491 22.6771 26.8013 22.6218 26.8651C22.5665 26.9289 22.5243 27.003 22.4976 27.0831C22.4709 27.1631 22.4602 27.2477 22.4662 27.3319C22.4722 27.4161 22.4947 27.4984 22.5324 27.5739C22.5702 27.6494 22.6225 27.7167 22.6862 27.772C22.75 27.8274 22.8241 27.8696 22.9042 27.8963C22.9843 27.923 23.0688 27.9336 23.1531 27.9276C23.2373 27.9217 23.3195 27.8992 23.395 27.8614L23.7503 27.6838V28.8176L22.82 29.2829C22.6675 29.3592 22.5515 29.4929 22.4976 29.6546C22.4436 29.8164 22.4562 29.993 22.5324 30.1455C22.6087 30.298 22.7424 30.4139 22.9042 30.4679C23.0659 30.5218 23.2425 30.5092 23.395 30.433L23.7503 30.2554V31.3892L22.82 31.8545C22.7445 31.8923 22.6771 31.9445 22.6218 32.0083C22.5665 32.0721 22.5243 32.1461 22.4976 32.2262C22.4709 32.3063 22.4602 32.3909 22.4662 32.4751C22.4722 32.5593 22.4947 32.6415 22.5324 32.7171C22.5702 32.7926 22.6225 32.8599 22.6862 32.9152C22.75 32.9705 22.8241 33.0128 22.9042 33.0395C22.9843 33.0662 23.0688 33.0768 23.1531 33.0708C23.2373 33.0648 23.3195 33.0423 23.395 33.0046L23.7503 32.827V33.9608L22.82 34.4261C22.6675 34.5023 22.5515 34.6361 22.4976 34.7978C22.4436 34.9596 22.4562 35.1361 22.5324 35.2886C22.6087 35.4412 22.7424 35.5571 22.9042 35.611C23.0659 35.665 23.2425 35.6524 23.395 35.5762L23.7503 35.3986V36.5324L22.82 36.9977C22.6675 37.0739 22.5515 37.2076 22.4976 37.3694C22.4436 37.5312 22.4562 37.7077 22.5324 37.8602C22.6087 38.0127 22.7424 38.1287 22.9042 38.1826C23.0659 38.2366 23.2425 38.224 23.395 38.1477L23.7503 37.9702V39.104L22.82 39.5693C22.7445 39.607 22.6771 39.6593 22.6218 39.7231C22.5665 39.7869 22.5243 39.8609 22.4976 39.941C22.4709 40.0211 22.4602 40.1057 22.4662 40.1899C22.4722 40.2741 22.4947 40.3563 22.5324 40.4318C22.5702 40.5073 22.6225 40.5747 22.6862 40.63C22.75 40.6853 22.8241 40.7275 22.9042 40.7542C22.9843 40.7809 23.0688 40.7916 23.1531 40.7856C23.2373 40.7796 23.3195 40.7571 23.395 40.7193L23.7503 40.5417V42.7143H20.5361Z" fill="white"/>
<path d="M29.7246 13.5974C29.8501 13.7229 30.0147 13.7857 30.1791 13.7857C30.3435 13.7857 30.5081 13.7229 30.6336 13.5974L31.1434 13.0876L31.6531 13.5974C31.7787 13.7229 31.9432 13.7857 32.1076 13.7857C32.2721 13.7857 32.4366 13.7229 32.5621 13.5974C32.6827 13.4768 32.7504 13.3133 32.7504 13.1429C32.7504 12.9724 32.6827 12.8089 32.5621 12.6884L32.0524 12.1786L32.5621 11.6688C32.6235 11.6095 32.6725 11.5385 32.7062 11.4601C32.7399 11.3817 32.7576 11.2973 32.7584 11.212C32.7591 11.1266 32.7429 11.042 32.7105 10.963C32.6782 10.884 32.6305 10.8122 32.5701 10.7518C32.5098 10.6915 32.438 10.6437 32.359 10.6114C32.28 10.5791 32.1953 10.5628 32.11 10.5636C32.0246 10.5643 31.9402 10.582 31.8618 10.6157C31.7834 10.6494 31.7124 10.6984 31.6531 10.7598L31.1434 11.2696L30.6336 10.7598C30.5743 10.6984 30.5033 10.6494 30.4249 10.6157C30.3465 10.582 30.2621 10.5643 30.1768 10.5636C30.0914 10.5628 30.0068 10.5791 29.9277 10.6114C29.8487 10.6437 29.777 10.6915 29.7166 10.7518C29.6562 10.8122 29.6085 10.884 29.5762 10.963C29.5439 11.042 29.5276 11.1266 29.5283 11.212C29.5291 11.2973 29.5468 11.3817 29.5805 11.4601C29.6142 11.5385 29.6632 11.6095 29.7246 11.6688L30.2344 12.1786L29.7246 12.6884C29.6041 12.8089 29.5364 12.9724 29.5364 13.1429C29.5364 13.3133 29.6041 13.4768 29.7246 13.5974ZM36.6076 11.8571C37.6711 11.8571 38.5362 10.992 38.5362 9.92857C38.5362 8.86513 37.6711 8 36.6076 8C35.5442 8 34.6791 8.86513 34.6791 9.92857C34.6791 10.992 35.5442 11.8571 36.6076 11.8571ZM36.6076 9.28571C36.9623 9.28571 37.2505 9.5742 37.2505 9.92857C37.2505 10.2829 36.9623 10.5714 36.6076 10.5714C36.253 10.5714 35.9648 10.2829 35.9648 9.92857C35.9648 9.5742 36.253 9.28571 36.6076 9.28571ZM36.0286 41.7204C35.8463 41.7204 35.6715 41.7929 35.5425 41.9218C35.4136 42.0507 35.3412 42.2255 35.3412 42.4078C35.3412 42.5901 35.4136 42.7649 35.5425 42.8939C35.6715 43.0228 35.8463 43.0952 36.0286 43.0952C36.2109 43.0952 36.3857 43.0228 36.5146 42.8939C36.6435 42.7649 36.716 42.5901 36.716 42.4078C36.716 42.2255 36.6435 42.0507 36.5146 41.9218C36.3857 41.7929 36.2109 41.7204 36.0286 41.7204Z" fill="white"/>
</g>
<defs>
<clipPath id="clip0_302_435">
<rect width="36" height="36" fill="white" transform="translate(8 8)"/>
</clipPath>
</defs>
</svg>
