<svg width="52" height="52" viewBox="0 0 52 52" fill="none" xmlns="http://www.w3.org/2000/svg">
<rect width="52" height="52" fill="white" fill-opacity="0.15"/>
<g clip-path="url(#clip0_302_174)">
<path d="M43.2104 13.6141C43.1789 13.6024 43.1469 13.592 43.1146 13.583L35.2519 11.3872C34.9172 11.2939 34.5633 11.2939 34.2286 11.3872L26.2323 13.6203C26.0802 13.6628 25.9193 13.6628 25.7671 13.6203L17.771 11.3873C17.4363 11.2938 17.0823 11.2938 16.7476 11.3873L12.3614 12.6122C12.2958 12.6305 12.2344 12.6616 12.1808 12.7036C12.1272 12.7457 12.0824 12.7978 12.0489 12.8572C12.0155 12.9166 11.9941 12.9819 11.9859 13.0496C11.9777 13.1172 11.9829 13.1858 12.0013 13.2514C12.0196 13.317 12.0506 13.3784 12.0927 13.432C12.1347 13.4856 12.1869 13.5304 12.2463 13.5639C12.3056 13.5973 12.371 13.6188 12.4386 13.6269C12.5063 13.6351 12.5749 13.6299 12.6405 13.6115L16.7405 12.4666V20.6123L14.2118 21.4042C14.1073 21.4369 14.016 21.5021 13.9512 21.5903C13.8864 21.6785 13.8515 21.7851 13.8515 21.8946C13.8515 22.2413 14.1879 22.4886 14.5189 22.3849L16.7405 21.6893V23.6915H11.4638C11.2824 23.6913 11.1055 23.7483 10.9583 23.8543C10.8111 23.9604 10.7011 24.1101 10.6437 24.2822C10.5861 24.4542 10.5841 24.64 10.638 24.8132C10.6919 24.9864 10.799 25.1383 10.9441 25.2472L14.1858 27.6853L9.0376 29.123V14.7489C9.0376 14.6716 9.08956 14.6032 9.16402 14.5823L10.2007 14.2929C10.4767 14.2158 10.6379 13.9296 10.5609 13.6537C10.4838 13.3777 10.1975 13.2164 9.92164 13.2935L8.88495 13.583C8.36387 13.7285 8 14.208 8 14.7489V38.0395C8 38.4214 8.17445 38.7729 8.47869 39.0038C8.78286 39.2347 9.16831 39.3081 9.53612 39.2054L17.0268 37.1136C17.1789 37.0712 17.3398 37.0712 17.4919 37.1136L25.4881 39.3467C25.8228 39.4402 26.1768 39.4402 26.5115 39.3467L28.8301 38.6992L31.2357 40.5085C31.3639 40.6055 31.5167 40.6647 31.6769 40.6793C31.837 40.6939 31.998 40.6634 32.1416 40.5911C32.2857 40.5198 32.407 40.4095 32.4915 40.2727C32.5761 40.136 32.6207 39.9782 32.6201 39.8174V37.6408L34.5077 37.1136C34.6599 37.0711 34.8207 37.0711 34.9729 37.1136L42.4635 39.2054C43.2026 39.4363 44.0229 38.8168 43.9996 38.0395V14.7489C43.9995 14.2418 43.6797 13.7887 43.2104 13.6141ZM26.5186 14.6176L28.4049 14.0909V16.7539L26.5186 17.3035V14.6176ZM17.7781 12.4666L25.481 14.6177V17.288L21.6226 16.074C21.3013 15.9634 20.939 16.2291 20.9481 16.5689V21.598L17.778 20.6053L17.7781 12.4666ZM17.7781 21.6926L21.3119 22.7991C21.3896 22.8234 21.4719 22.8291 21.5522 22.8158C21.6325 22.8024 21.7085 22.7703 21.7741 22.7221C21.8397 22.6739 21.893 22.611 21.9298 22.5383C21.9666 22.4657 21.9858 22.3855 21.9858 22.3041V17.2759L25.481 18.3756V23.6913H17.7781V21.6926ZM25.481 38.2673L17.7781 36.1162V32.4283C17.7781 32.2907 17.7234 32.1588 17.6261 32.0615C17.5288 31.9642 17.3969 31.9095 17.2593 31.9095C17.1217 31.9095 16.9898 31.9642 16.8925 32.0615C16.7952 32.1588 16.7405 32.2907 16.7405 32.4283V36.1162L9.25705 38.2061C9.23137 38.2135 9.2043 38.2147 9.17805 38.2097C9.1518 38.2047 9.1271 38.1936 9.10595 38.1773C9.08451 38.1613 9.06715 38.1405 9.05527 38.1166C9.0434 38.0926 9.03734 38.0662 9.0376 38.0395V30.2002L10.859 29.6915V32.9493C10.8498 33.2823 11.2 33.5472 11.5173 33.449L15.1935 32.4224C15.3261 32.3854 15.4384 32.2972 15.506 32.1774C15.5735 32.0575 15.5907 31.9157 15.5537 31.7832C15.5167 31.6507 15.4285 31.5383 15.3087 31.4707C15.1888 31.4032 15.047 31.386 14.9145 31.423L11.8965 32.2659V29.4017L15.2302 28.4707L25.4809 36.1802L25.481 38.2673ZM26.5186 38.2673V36.9606L27.7856 37.9134L26.5186 38.2673ZM31.5825 39.4709L11.9814 24.7289H14.1597V24.8743C14.1597 25.0119 14.2144 25.1439 14.3117 25.2412C14.409 25.3385 14.5409 25.3931 14.6785 25.3931C14.8161 25.3931 14.948 25.3385 15.0453 25.2412C15.1426 25.1439 15.1973 25.0119 15.1973 24.8743V24.7289H17.721V25.6283C17.721 25.7659 17.7756 25.8978 17.8729 25.9951C17.9702 26.0924 18.1022 26.1471 18.2398 26.1471C18.3773 26.1471 18.5093 26.0924 18.6066 25.9951C18.7039 25.8978 18.7585 25.7659 18.7585 25.6283V24.7289H21.2822V24.8743C21.2822 25.0119 21.3369 25.1439 21.4342 25.2412C21.5315 25.3385 21.6634 25.3931 21.801 25.3931C21.9386 25.3931 22.0705 25.3385 22.1678 25.2412C22.2651 25.1439 22.3198 25.0119 22.3198 24.8743V24.7289H24.8434V25.6283C24.8434 25.7659 24.8981 25.8978 24.9954 25.9951C25.0927 26.0924 25.2246 26.1471 25.3622 26.1471C25.4998 26.1471 25.6317 26.0924 25.729 25.9951C25.8263 25.8978 25.881 25.7659 25.881 25.6283V24.7289H28.4047V24.8743C28.4047 25.0119 28.4593 25.1439 28.5566 25.2412C28.6539 25.3385 28.7859 25.3931 28.9235 25.3931C29.061 25.3931 29.193 25.3385 29.2903 25.2412C29.3876 25.1439 29.4422 25.0119 29.4422 24.8743V24.7289H31.5477C31.5667 24.7289 31.5822 24.7444 31.5822 24.7635V39.4709H31.5825ZM34.2214 36.1163L32.6201 36.5634V30.4304L34.2214 29.9832V36.1163ZM34.2214 28.9059L32.6201 29.3531V24.7636C32.6201 24.1724 32.1392 23.6914 31.5479 23.6914H26.5186V18.3843L31.5825 16.909V22.1899C31.5737 22.5232 31.923 22.7879 32.2414 22.6894L34.2214 22.1342V28.9059ZM34.2214 21.0565L32.6201 21.5055V16.2174C32.6201 16.1369 32.6014 16.0574 32.5654 15.9854C32.5294 15.9134 32.4771 15.8507 32.4127 15.8024C32.3483 15.7541 32.2735 15.7214 32.1943 15.707C32.1151 15.6926 32.0336 15.6968 31.9562 15.7193L29.4425 16.4516V13.8011L34.2214 12.4665V21.0565ZM42.9619 38.0395C42.9621 38.0662 42.9561 38.0926 42.9442 38.1166C42.9323 38.1405 42.915 38.1613 42.8936 38.1773C42.8724 38.1936 42.8477 38.2047 42.8215 38.2097C42.7952 38.2147 42.7682 38.2134 42.7425 38.2061L35.259 36.1163V22.1334L40.0846 23.481C40.3532 23.5583 40.6477 23.3992 40.7239 23.1209C40.7422 23.0553 40.7474 22.9867 40.7392 22.919C40.731 22.8514 40.7096 22.786 40.6762 22.7267C40.6427 22.6673 40.5979 22.6151 40.5443 22.5731C40.4907 22.5311 40.4293 22.5 40.3637 22.4817L35.259 21.0561V12.4666L39.1952 13.5658V15.8854L36.9804 15.2668C36.7044 15.1897 36.4183 15.351 36.3412 15.627C36.2641 15.903 36.4254 16.1891 36.7014 16.2662L39.5745 17.0686C39.8918 17.1668 40.2421 16.9019 40.2329 16.569V13.8556L42.8356 14.5824C42.8719 14.5927 42.9039 14.6145 42.9267 14.6445C42.9495 14.6746 42.9619 14.7113 42.962 14.749V38.0395H42.9619Z" fill="white"/>
<path d="M39.5995 32.2589L38.7962 32.0345V31.2091C38.7962 31.0715 38.7415 30.9396 38.6442 30.8423C38.5469 30.745 38.415 30.6903 38.2774 30.6903C38.1398 30.6903 38.0079 30.745 37.9106 30.8423C37.8133 30.9396 37.7586 31.0715 37.7586 31.2091V31.7447L37.2345 31.5983C36.9584 31.5212 36.6723 31.6825 36.5952 31.9585C36.5182 32.2345 36.6794 32.5206 36.9554 32.5977L37.7587 32.8221V33.6475C37.7587 33.785 37.8134 33.917 37.9107 34.0143C38.0079 34.1116 38.1399 34.1662 38.2775 34.1662C38.4151 34.1662 38.547 34.1116 38.6443 34.0143C38.7416 33.917 38.7962 33.785 38.7962 33.6475V33.1118L39.3204 33.2582C39.5889 33.3355 39.8835 33.1764 39.9596 32.8981C39.978 32.8324 39.9832 32.7639 39.975 32.6962C39.9668 32.6286 39.9454 32.5632 39.912 32.5039C39.8785 32.4445 39.8337 32.3923 39.7801 32.3503C39.7265 32.3082 39.6651 32.2772 39.5995 32.2589ZM28.7118 26.6658H19.953C19.8006 26.6656 19.652 26.7135 19.5284 26.8026C19.4047 26.8916 19.3123 27.0174 19.2641 27.162C19.2157 27.3065 19.2141 27.4625 19.2594 27.608C19.3046 27.7535 19.3946 27.881 19.5165 27.9725L28.4828 34.7161C28.9364 35.0815 29.6652 34.7161 29.6457 34.1356V27.5996C29.6456 27.0847 29.2267 26.6658 28.7118 26.6658ZM28.608 33.5121L20.8847 27.7034H25.4809V29.0922C25.4809 29.2298 25.5355 29.3617 25.6328 29.459C25.7301 29.5563 25.8621 29.611 25.9996 29.611C26.1372 29.611 26.2692 29.5563 26.3665 29.459C26.4638 29.3617 26.5184 29.2298 26.5184 29.0922V27.7034H28.608L28.608 33.5121Z" fill="white"/>
</g>
<defs>
<clipPath id="clip0_302_174">
<rect width="36" height="36" fill="white" transform="translate(8 8)"/>
</clipPath>
</defs>
</svg>
