<svg width="52" height="52" viewBox="0 0 52 52" fill="none" xmlns="http://www.w3.org/2000/svg">
<rect width="52" height="52" fill="white" fill-opacity="0.15"/>
<g clip-path="url(#clip0_302_534)">
<path d="M41.7502 24.5938C42.2153 24.5938 42.5939 24.2152 42.5939 23.75V22.9062H43.4377C43.4971 22.9063 43.5549 22.8875 43.603 22.8526C43.651 22.8177 43.6868 22.7684 43.7052 22.7119C43.7235 22.6555 43.7235 22.5946 43.7052 22.5381C43.6868 22.4816 43.6511 22.4324 43.603 22.3975L38.3752 18.5955V17H40.9064V17.8438C40.9064 18.3089 41.285 18.6875 41.7502 18.6875C42.2153 18.6875 42.5939 18.3089 42.5939 17.8438V17H43.4377C43.4971 17 43.5549 16.9812 43.603 16.9463C43.651 16.9114 43.6868 16.8622 43.7052 16.8057C43.7235 16.7492 43.7235 16.6883 43.7052 16.6319C43.6868 16.5754 43.6511 16.5261 43.603 16.4912L38.3752 12.6893V11.9375L37.5778 9.15453C37.5091 8.90392 37.36 8.68279 37.1535 8.52504C36.947 8.3673 36.6944 8.28165 36.4345 8.28125H34.1848C33.6516 8.28125 33.1816 8.64041 33.0441 9.14497L32.1877 11.8947V12.2803L26.3973 16.4912C26.349 16.526 26.3131 16.5753 26.2946 16.6318C26.2762 16.6884 26.2761 16.7493 26.2945 16.8059C26.3129 16.8625 26.3488 16.9117 26.397 16.9466C26.4452 16.9815 26.5032 17.0002 26.5627 17H26.8439V17.8438C26.8439 18.3089 27.2225 18.6875 27.6877 18.6875C28.1528 18.6875 28.5314 18.3089 28.5314 17.8438V17H32.1877V18.1863L26.3973 22.3975C26.349 22.4323 26.3131 22.4815 26.2946 22.5381C26.2762 22.5946 26.2761 22.6556 26.2945 22.7121C26.3129 22.7687 26.3488 22.818 26.397 22.8529C26.4452 22.8878 26.5032 22.9064 26.5627 22.9062H26.8439V23.75C26.8439 24.2152 27.2225 24.5938 27.6877 24.5938C28.1528 24.5938 28.5314 24.2152 28.5314 23.75V22.9062H32.1877V24.0926L26.3973 28.3037C26.349 28.3385 26.3131 28.3878 26.2946 28.4443C26.2762 28.5009 26.2761 28.5618 26.2945 28.6184C26.3129 28.675 26.3488 28.7242 26.397 28.7591C26.4452 28.794 26.5032 28.8127 26.5627 28.8125H26.8439V29.6562C26.8439 30.1214 27.2225 30.5 27.6877 30.5C28.1528 30.5 28.5314 30.1214 28.5314 29.6562V28.8125H32.1877V29.3314L28.314 41.4688H24.2488L20.3752 29.3314V28.8125H22.9064V29.6562C22.9064 30.1214 23.285 30.5 23.7502 30.5C24.2153 30.5 24.5939 30.1214 24.5939 29.6562V28.8125H25.4377C25.497 28.8124 25.5548 28.7936 25.6027 28.7587C25.6507 28.7238 25.6864 28.6747 25.7048 28.6182C25.7231 28.5618 25.7232 28.501 25.7049 28.4446C25.6866 28.3882 25.651 28.339 25.603 28.304L20.3752 24.5018V22.9062H22.9064V23.75C22.9064 24.2152 23.285 24.5938 23.7502 24.5938C24.2153 24.5938 24.5939 24.2152 24.5939 23.75V22.9062H25.4377C25.4971 22.9063 25.5549 22.8875 25.603 22.8526C25.651 22.8177 25.6868 22.7684 25.7052 22.7119C25.7235 22.6555 25.7236 22.5946 25.7052 22.5381C25.6868 22.4816 25.6511 22.4324 25.603 22.3975L20.3752 18.5955V17H22.9064V17.8438C22.9064 18.3089 23.285 18.6875 23.7502 18.6875C24.2153 18.6875 24.5939 18.3089 24.5939 17.8438V17H25.4377C25.4971 17 25.5549 16.9812 25.603 16.9463C25.651 16.9114 25.6868 16.8622 25.7052 16.8057C25.7235 16.7492 25.7236 16.6883 25.7052 16.6319C25.6868 16.5754 25.6511 16.5261 25.603 16.4912L20.3752 12.6893V11.9375L19.5778 9.15453C19.5091 8.90392 19.36 8.68279 19.1535 8.52504C18.947 8.3673 18.6944 8.28165 18.4345 8.28125H16.1848C15.6516 8.28125 15.1816 8.64041 15.0441 9.14497L14.1877 11.8947V12.2803L8.39728 16.4912C8.34905 16.526 8.31311 16.5753 8.29464 16.6318C8.27618 16.6884 8.27613 16.7493 8.29452 16.8059C8.31291 16.8625 8.34878 16.9117 8.39697 16.9466C8.44515 16.9815 8.50317 17.0002 8.56265 17H8.8439V17.8438C8.8439 18.3089 9.22247 18.6875 9.68765 18.6875C10.1528 18.6875 10.5314 18.3089 10.5314 17.8438V17H14.1877V18.1863L8.39728 22.3975C8.34905 22.4323 8.31311 22.4815 8.29464 22.5381C8.27618 22.5946 8.27613 22.6556 8.29452 22.7121C8.31291 22.7687 8.34878 22.818 8.39697 22.8529C8.44515 22.8878 8.50317 22.9064 8.56265 22.9062H8.8439V23.75C8.8439 24.2152 9.22247 24.5938 9.68765 24.5938C10.1528 24.5938 10.5314 24.2152 10.5314 23.75V22.9062H14.1877V24.0926L8.39728 28.3037C8.34905 28.3385 8.31311 28.3878 8.29464 28.4443C8.27618 28.5009 8.27613 28.5618 8.29452 28.6184C8.31291 28.675 8.34878 28.7242 8.39697 28.7591C8.44515 28.794 8.50317 28.8127 8.56265 28.8125H8.8439V29.6562C8.8439 30.1214 9.22247 30.5 9.68765 30.5C10.1528 30.5 10.5314 30.1214 10.5314 29.6562V28.8125H14.1877V29.3314L10.314 41.4688H9.12515C8.65997 41.4688 8.2814 41.8473 8.2814 42.3125V42.875C8.2814 43.3402 8.65997 43.7188 9.12515 43.7188H42.8752C43.3403 43.7188 43.7189 43.3402 43.7189 42.875V42.3125C43.7189 41.8473 43.3403 41.4688 42.8752 41.4688H42.2488L38.3752 29.3314V28.8125H40.9064V29.6562C40.9064 30.1214 41.285 30.5 41.7502 30.5C42.2153 30.5 42.5939 30.1214 42.5939 29.6562V28.8125H43.4377C43.497 28.8124 43.5548 28.7936 43.6027 28.7587C43.6507 28.7238 43.6864 28.6747 43.7048 28.6182C43.7231 28.5618 43.7232 28.501 43.7049 28.4446C43.6866 28.3882 43.651 28.339 43.603 28.304L38.3752 24.5018V22.9062H40.9064V23.75C40.9064 24.2152 41.285 24.5938 41.7502 24.5938ZM42.0314 23.75C42.0282 23.8224 41.9971 23.8908 41.9447 23.9409C41.8923 23.991 41.8226 24.019 41.7502 24.019C41.6777 24.019 41.608 23.991 41.5556 23.9409C41.5032 23.8908 41.4721 23.8224 41.4689 23.75V22.9062H42.0314V23.75ZM38.7728 22.3438L40.3729 20.7437L42.5728 22.3438H38.7728ZM39.9125 20.4087L38.3752 21.9461V19.2908L39.9125 20.4087ZM42.0314 17.8438C42.0282 17.9162 41.9971 17.9845 41.9447 18.0346C41.8923 18.0847 41.8226 18.1127 41.7502 18.1127C41.6777 18.1127 41.608 18.0847 41.5556 18.0346C41.5032 17.9845 41.4721 17.9162 41.4689 17.8438V17H42.0314V17.8438ZM38.7728 16.4375L40.3729 14.8375L42.5728 16.4375H38.7728ZM39.9125 14.5025L38.3752 16.0398V13.3845L39.9125 14.5025ZM32.1877 16.1335L30.1199 14.4792L32.1877 12.9756V16.1335ZM29.6482 14.8223L31.6671 16.4375H27.4275L29.6482 14.8223ZM27.9689 17.8438C27.9657 17.9162 27.9346 17.9845 27.8822 18.0346C27.8298 18.0847 27.7601 18.1127 27.6877 18.1127C27.6152 18.1127 27.5455 18.0847 27.4931 18.0346C27.4407 17.9845 27.4096 17.9162 27.4064 17.8438V17H27.9689V17.8438ZM32.1877 22.0397L30.1199 20.3854L32.1877 18.8818V22.0397ZM29.6482 20.7285L31.6671 22.3438H27.4275L29.6482 20.7285ZM27.9689 23.75C27.9657 23.8224 27.9346 23.8908 27.8822 23.9409C27.8298 23.991 27.7601 24.019 27.6877 24.019C27.6152 24.019 27.5455 23.991 27.4931 23.9409C27.4407 23.8908 27.4096 23.8224 27.4064 23.75V22.9062H27.9689V23.75ZM32.1877 27.946L30.1199 26.2919L32.1877 24.7881V27.946ZM29.6482 26.6351L31.6668 28.25H27.4275L29.6482 26.6351ZM27.9689 29.6562C27.9689 29.7308 27.9393 29.8024 27.8865 29.8551C27.8338 29.9079 27.7622 29.9375 27.6877 29.9375C27.6131 29.9375 27.5415 29.9079 27.4888 29.8551C27.436 29.8024 27.4064 29.7308 27.4064 29.6562V28.8125H27.9689V29.6562ZM24.0314 29.6562C24.0314 29.7308 24.0018 29.8024 23.949 29.8551C23.8963 29.9079 23.8247 29.9375 23.7502 29.9375C23.6756 29.9375 23.604 29.9079 23.5513 29.8551C23.4985 29.8024 23.4689 29.7308 23.4689 29.6562V28.8125H24.0314V29.6562ZM20.7728 28.25L22.3729 26.65L24.5728 28.25H20.7728ZM21.9125 26.315L20.3752 27.8523V25.197L21.9125 26.315ZM24.0314 23.75C24.0282 23.8224 23.9971 23.8908 23.9447 23.9409C23.8923 23.991 23.8226 24.019 23.7502 24.019C23.6777 24.019 23.608 23.991 23.5556 23.9409C23.5032 23.8908 23.4721 23.8224 23.4689 23.75V22.9062H24.0314V23.75ZM20.7728 22.3438L22.3729 20.7437L24.5728 22.3438H20.7728ZM21.9125 20.4087L20.3752 21.9461V19.2908L21.9125 20.4087ZM24.0314 17.8438C24.0282 17.9162 23.9971 17.9845 23.9447 18.0346C23.8923 18.0847 23.8226 18.1127 23.7502 18.1127C23.6777 18.1127 23.608 18.0847 23.5556 18.0346C23.5032 17.9845 23.4721 17.9162 23.4689 17.8438V17H24.0314V17.8438ZM20.7728 16.4375L22.3729 14.8375L24.5728 16.4375H20.7728ZM21.9125 14.5025L20.3752 16.0398V13.3845L21.9125 14.5025ZM14.1877 16.1335L12.1199 14.4792L14.1877 12.9756V16.1335ZM11.6482 14.8223L13.6671 16.4375H9.4275L11.6482 14.8223ZM9.9689 17.8438C9.96566 17.9162 9.93462 17.9845 9.88223 18.0346C9.82984 18.0847 9.76014 18.1127 9.68765 18.1127C9.61517 18.1127 9.54547 18.0847 9.49308 18.0346C9.44069 17.9845 9.40964 17.9162 9.4064 17.8438V17H9.9689V17.8438ZM14.1877 22.0397L12.1199 20.3854L14.1877 18.8818V22.0397ZM11.6482 20.7285L13.6671 22.3438H9.4275L11.6482 20.7285ZM9.9689 23.75C9.96566 23.8224 9.93462 23.8908 9.88223 23.9409C9.82984 23.991 9.76014 24.019 9.68765 24.019C9.61517 24.019 9.54547 23.991 9.49308 23.9409C9.44069 23.8908 9.40964 23.8224 9.4064 23.75V22.9062H9.9689V23.75ZM14.1877 27.946L12.1199 26.2919L14.1877 24.7881V27.946ZM11.6482 26.6351L13.6668 28.25H9.4275L11.6482 26.6351ZM9.9689 29.6562C9.9689 29.7308 9.93927 29.8024 9.88653 29.8551C9.83378 29.9079 9.76225 29.9375 9.68765 29.9375C9.61306 29.9375 9.54153 29.9079 9.48878 29.8551C9.43604 29.8024 9.4064 29.7308 9.4064 29.6562V28.8125H9.9689V29.6562ZM14.7369 29.4605L14.7502 29.4186V11.9803L15.5841 9.30247C15.6202 9.1708 15.6985 9.05462 15.807 8.97176C15.9156 8.8889 16.0483 8.84393 16.1848 8.84375H18.4345C18.7147 8.84375 18.9616 9.03247 19.0367 9.30697L19.8127 11.9777V29.4189L23.6582 41.4688H23.1238L19.2502 29.3311V11.9375L18.6261 9.40625H15.9367L15.3127 11.9029V29.3314L11.439 41.4688H10.9046L14.7369 29.4605ZM22.4263 41.1341L17.8282 38.375L20.9483 36.5027L22.4263 41.1341ZM20.2328 34.2606L17.75 32.3984L19.2738 31.2554L20.2328 34.2606ZM15.8752 22.9062H18.6877V23.75H15.8752V22.9062ZM15.8752 17H18.6877V17.8438H15.8752V17ZM18.6877 13.0625V15.875L17.633 14.4688L18.6877 13.0625ZM17.2814 13.9999L16.1564 12.5H18.4064L17.2814 13.9999ZM18.4064 16.4375H16.1564L17.2814 14.9376L18.4064 16.4375ZM18.4064 18.4062L17.2814 19.9062L16.1564 18.4062H18.4064ZM18.6877 18.9688V21.7812L17.633 20.375L18.6877 18.9688ZM18.4064 22.3438H16.1564L17.2814 20.8438L18.4064 22.3438ZM18.4064 24.3125L17.2814 25.8127L16.1564 24.3125H18.4064ZM18.6877 24.875V27.6878L17.633 26.2812L18.6877 24.875ZM18.4064 28.25H16.1564L17.2814 26.7498L18.4064 28.25ZM15.8839 11.9375L16.3761 9.96875H18.1867L18.6789 11.9375H15.8839ZM15.8752 13.0625L16.9298 14.4688L15.8752 15.875V13.0625ZM15.8752 18.9688L16.9298 20.375L15.8752 21.7812V18.9688ZM15.8752 24.875L16.9298 26.2812L15.8752 27.6878V24.875ZM15.8619 29.4602L15.8752 29.4183V28.8125H18.6877V29.4186L19.0929 30.6884L17.2814 32.0469L15.4699 30.6884L15.8619 29.4602ZM15.289 31.2554L16.8128 32.3984L14.33 34.2606L15.289 31.2554ZM14.0352 35.1845L17.2814 32.75L20.5276 35.1848L20.7726 35.9526L17.2814 38.0471L13.7902 35.9523L14.0352 35.1845ZM13.6145 36.503L16.7347 38.375L12.1365 41.1338L13.6145 36.503ZM17.2814 38.7029L21.8911 41.4688H12.6717L17.2814 38.7029ZM43.1564 42.3125V42.875C43.1564 42.9496 43.1268 43.0211 43.074 43.0739C43.0213 43.1266 42.9497 43.1562 42.8752 43.1562H9.12515C9.05056 43.1562 8.97903 43.1266 8.92628 43.0739C8.87354 43.0211 8.8439 42.9496 8.8439 42.875V42.3125C8.8439 42.2379 8.87354 42.1664 8.92628 42.1136C8.97903 42.0609 9.05056 42.0312 9.12515 42.0312H42.8752C42.9497 42.0312 43.0213 42.0609 43.074 42.1136C43.1268 42.1664 43.1564 42.2379 43.1564 42.3125ZM35.8282 38.375L38.9483 36.5027L40.4263 41.1338L35.8282 38.375ZM39.8911 41.4688H30.6717L35.2814 38.7029L39.8911 41.4688ZM38.2328 34.2606L35.75 32.3984L37.2738 31.2554L38.2328 34.2606ZM33.8752 22.9062H36.6877V23.75H33.8752V22.9062ZM33.8752 17H36.6877V17.8438H33.8752V17ZM36.6877 13.0625V15.875L35.633 14.4688L36.6877 13.0625ZM35.2814 13.9999L34.1564 12.5H36.4064L35.2814 13.9999ZM36.4064 16.4375H34.1564L35.2814 14.9376L36.4064 16.4375ZM36.4064 18.4062L35.2814 19.9062L34.1564 18.4062H36.4064ZM36.6877 18.9688V21.7812L35.633 20.375L36.6877 18.9688ZM36.4064 22.3438H34.1564L35.2814 20.8438L36.4064 22.3438ZM36.4064 24.3125L35.2814 25.8127L34.1564 24.3125H36.4064ZM36.6877 24.875V27.6878L35.633 26.2812L36.6877 24.875ZM36.4064 28.25H34.1564L35.2814 26.7498L36.4064 28.25ZM33.8839 11.9375L34.3761 9.96875H36.1867L36.6789 11.9375H33.8839ZM33.8752 13.0625L34.9298 14.4688L33.8752 15.875V13.0625ZM33.8752 18.9688L34.9298 20.375L33.8752 21.7812V18.9688ZM33.8752 24.875L34.9298 26.2812L33.8752 27.6878V24.875ZM33.8619 29.4602L33.8752 29.4183V28.8125H36.6877V29.4186L37.0929 30.6884L35.2814 32.0469L33.4699 30.6884L33.8619 29.4602ZM33.289 31.2554L34.8128 32.3984L32.33 34.2606L33.289 31.2554ZM32.0352 35.1845L35.2814 32.75L38.5276 35.1848L38.7726 35.9526L35.2814 38.0471L31.7902 35.9523L32.0352 35.1845ZM31.6145 36.503L34.7347 38.375L30.1365 41.1338L31.6145 36.503ZM41.6582 41.4688H41.1238L37.2502 29.3311V11.9375L36.6261 9.40625H33.9367L33.3127 11.9029V29.3314L29.439 41.4688H28.9046L32.7369 29.4605L32.7502 29.4186V11.9803L33.5841 9.30247C33.6202 9.1708 33.6985 9.05462 33.807 8.97176C33.9156 8.8889 34.0483 8.84393 34.1848 8.84375H36.4345C36.7147 8.84375 36.9616 9.03247 37.0367 9.30697L37.8129 11.9774V29.4186L41.6582 41.4688ZM42.0314 29.6562C42.0314 29.7308 42.0018 29.8024 41.949 29.8551C41.8963 29.9079 41.8247 29.9375 41.7502 29.9375C41.6756 29.9375 41.604 29.9079 41.5513 29.8551C41.4985 29.8024 41.4689 29.7308 41.4689 29.6562V28.8125H42.0314V29.6562ZM38.7728 28.25L40.3729 26.65L42.5728 28.25H38.7728ZM39.9125 26.315L38.3752 27.8523V25.197L39.9125 26.315Z" fill="white"/>
</g>
<defs>
<clipPath id="clip0_302_534">
<rect width="36" height="36" fill="white" transform="translate(8 8)"/>
</clipPath>
</defs>
</svg>
