<svg width="52" height="52" viewBox="0 0 52 52" fill="none" xmlns="http://www.w3.org/2000/svg">
<rect width="52" height="52" fill="white" fill-opacity="0.15"/>
<g clip-path="url(#clip0_302_358)">
<path d="M34.4842 27.9371C34.8273 27.8564 35.0401 27.5129 34.9594 27.1697C34.8788 26.8266 34.5352 26.6138 34.1921 26.6945C33.849 26.7752 33.6362 27.1187 33.7169 27.4619C33.7975 27.805 34.1411 28.0178 34.4842 27.9371Z" fill="white"/>
<path d="M30.1353 37.849C30.4878 37.849 30.7735 37.5632 30.7735 37.2107C30.7735 36.8583 30.4878 36.5725 30.1353 36.5725C29.7828 36.5725 29.4971 36.8583 29.4971 37.2107C29.4971 37.5632 29.7828 37.849 30.1353 37.849Z" fill="white"/>
<path d="M28.965 19.4746C29.3129 19.418 29.549 19.09 29.4923 18.7421C29.4357 18.3942 29.1077 18.1581 28.7598 18.2148C28.4119 18.2715 28.1758 18.5994 28.2325 18.9473C28.2891 19.2952 28.6171 19.5313 28.965 19.4746Z" fill="white"/>
<path d="M15.4795 14.5308C15.832 14.5308 16.1178 14.2451 16.1178 13.8926C16.1178 13.5401 15.832 13.2544 15.4795 13.2544C15.1271 13.2544 14.8413 13.5401 14.8413 13.8926C14.8413 14.2451 15.1271 14.5308 15.4795 14.5308Z" fill="white"/>
<path d="M8.52741 26.7924C8.38755 26.7924 8.25342 26.848 8.15453 26.9469C8.05563 27.0458 8.00007 27.1799 8.00007 27.3198C8.00007 27.4596 8.05563 27.5938 8.15453 27.6927C8.25342 27.7916 8.38755 27.8471 8.52741 27.8471H18.3246C18.4645 27.8471 18.5986 27.7916 18.6975 27.6927C18.7964 27.5938 18.852 27.4596 18.852 27.3198C18.852 27.1799 18.7964 27.0458 18.6975 26.9469C18.5986 26.848 18.4645 26.7924 18.3246 26.7924H8.52741ZM20.593 26.7924C20.4532 26.7924 20.319 26.848 20.2202 26.9469C20.1213 27.0458 20.0657 27.1799 20.0657 27.3198C20.0657 27.4596 20.1213 27.5938 20.2202 27.6927C20.319 27.7916 20.4532 27.8471 20.593 27.8471H31.3746C31.5145 27.8471 31.6486 27.7916 31.7475 27.6927C31.8464 27.5938 31.902 27.4596 31.902 27.3198C31.902 27.1799 31.8464 27.0458 31.7475 26.9469C31.6486 26.848 31.5145 26.7924 31.3746 26.7924H20.593ZM23.9231 31.5202H8.52734C8.38748 31.5202 8.25335 31.5757 8.15446 31.6746C8.05556 31.7735 8 31.9077 8 32.0475C8 32.1874 8.05556 32.3215 8.15446 32.4204C8.25335 32.5193 8.38748 32.5749 8.52734 32.5749H23.9231C24.063 32.5749 24.1971 32.5193 24.296 32.4204C24.3949 32.3215 24.4505 32.1874 24.4505 32.0475C24.4505 31.9077 24.3949 31.7735 24.296 31.6746C24.1971 31.5757 24.063 31.5202 23.9231 31.5202ZM39.3165 31.5202H26.476C26.3362 31.5202 26.202 31.5757 26.1031 31.6746C26.0042 31.7735 25.9487 31.9077 25.9487 32.0475C25.9487 32.1874 26.0042 32.3215 26.1031 32.4204C26.202 32.5193 26.3362 32.5749 26.476 32.5749H39.3165C41.3174 32.5749 42.9453 34.2027 42.9453 36.2037C42.9453 38.2046 41.3174 39.8325 39.3165 39.8325C38.1644 39.8325 37.1062 39.3035 36.4132 38.3811C35.9385 37.7494 35.6877 36.9965 35.6877 36.2037C35.6877 36.0638 35.6321 35.9297 35.5332 35.8308C35.4343 35.7319 35.3002 35.6763 35.1603 35.6763C35.0205 35.6763 34.8863 35.7319 34.7874 35.8308C34.6885 35.9297 34.633 36.0638 34.633 36.2037C34.633 37.2267 34.957 38.1988 35.57 39.0146C36.4641 40.2047 37.8297 40.8872 39.3165 40.8872C41.899 40.8872 44 38.7862 44 36.2037C44 33.6213 41.899 31.5202 39.3165 31.5202ZM19.952 36.3182H8.52734C8.38748 36.3182 8.25335 36.3738 8.15446 36.4727C8.05556 36.5716 8 36.7057 8 36.8456C8 36.9854 8.05556 37.1196 8.15446 37.2185C8.25335 37.3174 8.38748 37.3729 8.52734 37.3729H19.952C21.0284 37.3729 21.9041 38.2486 21.9041 39.325C21.9041 40.4013 21.0284 41.2771 19.952 41.2771C19.3323 41.2771 18.7629 40.9925 18.3901 40.4962C18.1349 40.1564 18 39.7515 18 39.325C18 39.1851 17.9444 39.051 17.8455 38.9521C17.7466 38.8532 17.6125 38.7977 17.4726 38.7977C17.3328 38.7977 17.1986 38.8532 17.0998 38.9521C17.0009 39.051 16.9453 39.1851 16.9453 39.325C16.9453 39.9817 17.1534 40.6058 17.547 41.1297C18.1209 41.8936 18.9976 42.3317 19.9521 42.3317C21.61 42.3317 22.9588 40.9829 22.9588 39.3249C22.9588 37.667 21.61 36.3182 19.952 36.3182ZM8.52734 23.2802H37.8224C39.4804 23.2802 40.8292 21.9314 40.8292 20.2734C40.8292 18.6154 39.4804 17.2666 37.8224 17.2666C36.8679 17.2666 35.9913 17.7048 35.4173 18.4687C35.0237 18.9926 34.8156 19.6166 34.8156 20.2734C34.8156 20.4133 34.8712 20.5474 34.9701 20.6463C35.069 20.7452 35.2031 20.8008 35.343 20.8008C35.4828 20.8008 35.617 20.7452 35.7159 20.6463C35.8148 20.5474 35.8703 20.4133 35.8703 20.2734C35.8703 19.847 36.0053 19.442 36.2605 19.1022C36.6334 18.6059 37.2026 18.3213 37.8223 18.3213C38.8988 18.3213 39.7744 19.197 39.7744 20.2734C39.7744 21.3498 38.8988 22.2255 37.8223 22.2255H8.52734C8.38748 22.2255 8.25335 22.2811 8.15446 22.38C8.05556 22.4788 8 22.613 8 22.7528C8 22.8927 8.05556 23.0268 8.15446 23.1257C8.25335 23.2246 8.38748 23.2802 8.52734 23.2802ZM8.52734 18.1168H11.6015C11.7414 18.1168 11.8755 18.0612 11.9744 17.9623C12.0733 17.8634 12.1289 17.7293 12.1289 17.5894C12.1289 17.4496 12.0733 17.3154 11.9744 17.2166C11.8755 17.1177 11.7414 17.0621 11.6015 17.0621H8.52734C8.38748 17.0621 8.25335 17.1177 8.15446 17.2166C8.05556 17.3154 8 17.4496 8 17.5894C8 17.7293 8.05556 17.8634 8.15446 17.9623C8.25335 18.0612 8.38748 18.1168 8.52734 18.1168ZM13.7109 18.1168H23.171C25.5003 18.1168 27.3953 16.2218 27.3953 13.8926C27.3953 11.5634 25.5003 9.66846 23.171 9.66846C21.8301 9.66846 20.5985 10.284 19.792 11.3574C19.2391 12.0933 18.9469 12.97 18.9469 13.8927C18.9469 14.0326 19.0024 14.1667 19.1013 14.2656C19.2002 14.3645 19.3344 14.42 19.4742 14.42C19.6141 14.42 19.7482 14.3645 19.8471 14.2656C19.946 14.1667 20.0016 14.0326 20.0016 13.8927C20.0016 13.2003 20.2207 12.5427 20.6352 11.9909C21.2405 11.1853 22.1649 10.7232 23.171 10.7232C24.9187 10.7232 26.3406 12.1451 26.3406 13.8927C26.3406 15.6403 24.9187 17.0622 23.171 17.0622H13.7109C13.5721 17.0638 13.4396 17.12 13.342 17.2187C13.2444 17.3175 13.1897 17.4507 13.1897 17.5895C13.1897 17.7283 13.2444 17.8615 13.342 17.9602C13.4396 18.0589 13.5721 18.1152 13.7109 18.1168Z" fill="white"/>
</g>
<defs>
<clipPath id="clip0_302_358">
<rect width="36" height="36" fill="white" transform="translate(8 8)"/>
</clipPath>
</defs>
</svg>
