<svg width="52" height="52" viewBox="0 0 52 52" fill="none" xmlns="http://www.w3.org/2000/svg">
<rect width="52" height="52" fill="white" fill-opacity="0.15"/>
<g clip-path="url(#clip0_302_585)">
<path fill-rule="evenodd" clip-rule="evenodd" d="M37.0421 28.5439V12.3561C37.0421 9.9542 35.0877 8 32.6859 8C30.2837 8 28.3295 9.9542 28.3295 12.3561V28.5439C26.776 29.4969 25.5695 30.937 24.9084 32.6388C24.7678 33.0007 24.947 33.4083 25.3091 33.549C25.6708 33.6893 26.0784 33.51 26.219 33.148C26.8115 31.6236 27.9301 30.3514 29.3694 29.5662C29.4803 29.5057 29.5728 29.4165 29.6373 29.3079C29.7018 29.1993 29.7358 29.0753 29.7357 28.949V12.3561C29.7358 10.7295 31.0592 9.40625 32.686 9.40625C34.3125 9.40625 35.6358 10.7295 35.6358 12.3561V28.949C35.6358 29.2063 35.7764 29.4431 36.0022 29.5662C38.2344 30.784 39.6211 33.1186 39.6211 35.6586C39.6211 39.4827 36.5098 42.5938 32.6857 42.5938C29.8018 42.5938 27.2634 40.857 26.2191 38.169C26.0785 37.807 25.6712 37.6276 25.3092 37.7683C24.9473 37.9089 24.7676 38.3162 24.9082 38.6783C25.5199 40.2523 26.5798 41.5885 27.9736 42.5421C29.3676 43.4957 30.9971 44 32.686 44C37.2854 44 41.0274 40.258 41.0274 35.6586C41.0274 32.7454 39.5107 30.0567 37.0421 28.5439Z" fill="white"/>
<path fill-rule="evenodd" clip-rule="evenodd" d="M32.6857 14.1438C32.2973 14.1438 31.9826 14.4586 31.9826 14.847V30.8557C29.6378 31.1976 27.8314 33.2207 27.8314 35.6586C27.8314 38.3352 30.0089 40.513 32.6857 40.513C35.3623 40.513 37.54 38.3352 37.54 35.6586C37.54 33.2207 35.7334 31.1976 33.3888 30.8557V14.847C33.3888 14.4586 33.0741 14.1438 32.6857 14.1438H32.6857ZM36.1338 35.6586C36.1338 37.5599 34.5869 39.1067 32.6857 39.1067C30.7843 39.1067 29.2377 37.5599 29.2377 35.6586C29.2377 33.7572 30.7843 32.2103 32.6857 32.2103C34.5869 32.2103 36.1338 33.7572 36.1338 35.6586ZM39.6962 16.0851H43.349C43.7375 16.0851 44.0522 15.7704 44.0522 15.382C44.0522 14.9936 43.7375 14.6788 43.349 14.6788H39.6962C39.3078 14.6788 38.993 14.9936 38.993 15.382C38.993 15.7704 39.3078 16.0851 39.6962 16.0851ZM43.349 17.9264H39.6962C39.3078 17.9264 38.993 18.2412 38.993 18.6296C38.993 19.0177 39.3078 19.3327 39.6962 19.3327H43.3491C43.7375 19.3327 44.0522 19.0177 44.0522 18.6296C44.0522 18.2412 43.7375 17.9264 43.3491 17.9264H43.349ZM43.349 21.1738H39.6962C39.3078 21.1738 38.993 21.4885 38.993 21.8769C38.993 22.2653 39.3078 22.58 39.6962 22.58H43.3491C43.7375 22.58 44.0522 22.2652 44.0522 21.8769C44.0522 21.4885 43.7375 21.1738 43.3491 21.1738H43.349ZM43.349 24.421H39.6962C39.3078 24.421 38.993 24.736 38.993 25.1241C38.993 25.5125 39.3078 25.8272 39.6962 25.8272H43.3491C43.7375 25.8272 44.0522 25.5125 44.0522 25.1241C44.0522 24.7358 43.7375 24.421 43.3491 24.421H43.349ZM17.6339 14.9711C15.9423 14.9711 14.3405 15.7913 13.349 17.1645C13.1218 17.4792 13.1927 17.9187 13.5074 18.1461C13.8224 18.3733 14.2619 18.3024 14.4891 17.9877C15.2172 16.9794 16.3927 16.3774 17.6339 16.3774C19.7707 16.3774 21.5094 18.1159 21.5094 20.253C21.5094 22.3901 19.7707 24.1288 17.6339 24.1288C16.3924 24.1288 15.2169 23.5267 14.4891 22.5184C14.262 22.2037 13.8225 22.1328 13.5075 22.3599C13.1927 22.5874 13.1218 23.0268 13.349 23.3416C14.3405 24.7152 15.9423 25.535 17.6339 25.535C20.5461 25.535 22.9156 23.1655 22.9156 20.2531C22.9156 17.3407 20.5464 14.9711 17.6339 14.9711ZM17.6339 13.7599C18.0223 13.7599 18.3371 13.4451 18.3371 13.0567V11.3926C18.3371 11.0045 18.0223 10.6895 17.6339 10.6895C17.2456 10.6895 16.9308 11.0045 16.9308 11.3926V13.0567C16.9308 13.4451 17.2455 13.7599 17.6339 13.7599ZM12.0482 15.6616C12.1134 15.727 12.1909 15.7789 12.2762 15.8142C12.3615 15.8496 12.4529 15.8677 12.5453 15.8676C12.6376 15.8677 12.7291 15.8496 12.8144 15.8142C12.8997 15.7789 12.9772 15.727 13.0424 15.6616C13.3171 15.3872 13.3171 14.942 13.0424 14.6674L11.8658 13.4907C11.5911 13.2161 11.1459 13.2161 10.8716 13.4907C10.5969 13.7651 10.5969 14.2103 10.8716 14.4849L12.0482 15.6616ZM24.1271 20.2531C24.1271 20.6414 24.4419 20.9562 24.8302 20.9562H26.4944C26.8828 20.9562 27.1975 20.6414 27.1975 20.2531C27.1975 19.8647 26.8828 19.55 26.4944 19.55H24.8302C24.4419 19.55 24.1271 19.8647 24.1271 20.2531ZM22.7225 15.8676C22.8148 15.8677 22.9063 15.8496 22.9916 15.8143C23.0769 15.779 23.1544 15.7272 23.2196 15.6619L24.3962 14.4849C24.671 14.2106 24.671 13.7653 24.3962 13.4907C24.1219 13.2161 23.6767 13.2161 23.402 13.4907L22.2253 14.6673C21.9507 14.942 21.9507 15.3872 22.2253 15.6619C22.2906 15.7272 22.3681 15.779 22.4534 15.8143C22.5387 15.8496 22.6302 15.8677 22.7225 15.8676ZM11.1407 20.2531C11.1407 19.8647 10.8259 19.55 10.4376 19.55H8.77344C8.3851 19.55 8.07031 19.8647 8.07031 20.2531C8.07031 20.6415 8.3851 20.9562 8.77344 20.9562H10.4376C10.8259 20.9562 11.1407 20.6414 11.1407 20.2531ZM17.6339 26.7462C17.2455 26.7462 16.9308 27.061 16.9308 27.4494V29.1135C16.9308 29.5019 17.2455 29.8166 17.6339 29.8166C18.0223 29.8166 18.3371 29.5019 18.3371 29.1135V27.4494C18.3371 27.061 18.0223 26.7462 17.6339 26.7462ZM24.3962 26.0211L23.2196 24.8445C22.945 24.5698 22.4998 24.5698 22.2254 24.8445C21.9507 25.1192 21.9507 25.5644 22.2254 25.8391L23.402 27.0157C23.5393 27.1528 23.7193 27.2214 23.8991 27.2214C24.079 27.2214 24.2589 27.1528 24.3962 27.0157C24.671 26.741 24.671 26.2958 24.3962 26.0212V26.0211ZM12.0482 24.8445L10.8716 26.0212C10.5969 26.2955 10.5969 26.7407 10.8716 27.0154C11.0087 27.1528 11.1888 27.2214 11.3687 27.2214C11.5485 27.2214 11.7285 27.1528 11.8658 27.0154L13.0425 25.8388C13.3171 25.5644 13.3171 25.1192 13.0425 24.8446C12.7678 24.5699 12.3228 24.5698 12.0482 24.8446L12.0482 24.8445ZM25.7506 35.6586C25.7506 35.2713 25.4348 34.9555 25.0475 34.9555C24.6602 34.9555 24.3441 35.2713 24.3441 35.6586C24.3441 36.0459 24.6602 36.3617 25.0475 36.3617C25.4348 36.3617 25.7506 36.0459 25.7506 35.6586Z" fill="white"/>
<path fill-rule="evenodd" clip-rule="evenodd" d="M12.3521 20.2532C12.3521 20.6404 12.6679 20.9563 13.0552 20.9563C13.4424 20.9563 13.7583 20.6404 13.7583 20.2532C13.7583 19.866 13.4424 19.55 13.0552 19.55C12.6679 19.55 12.3521 19.8659 12.3521 20.2532Z" fill="white"/>
</g>
<defs>
<clipPath id="clip0_302_585">
<rect width="36" height="36" fill="white" transform="translate(8 8)"/>
</clipPath>
</defs>
</svg>
