<svg width="52" height="52" viewBox="0 0 52 52" fill="none" xmlns="http://www.w3.org/2000/svg">
<rect width="52" height="52" fill="white" fill-opacity="0.15"/>
<g clip-path="url(#clip0_302_552)">
<path d="M42.2352 29.9938V23.1185C42.2172 22.3185 42.0256 21.532 41.6736 20.8134C41.3216 20.0949 40.8176 19.4614 40.1965 18.957C39.5754 18.4525 38.852 18.0891 38.0765 17.8919C37.3011 17.6947 36.492 17.6684 35.7053 17.8149V14.5524C35.7049 13.9747 35.4755 13.4207 35.0672 13.0119C34.659 12.6031 34.1054 12.3728 33.5277 12.3715V10.7644C34.4707 11.2537 35.479 11.6055 36.5218 11.809C37.0277 11.809 37.5129 11.608 37.8707 11.2503C38.2285 10.8925 38.4294 10.4073 38.4294 9.90133C38.4294 9.39538 38.2285 8.91016 37.8707 8.5524C37.5129 8.19464 37.0277 7.99365 36.5218 7.99365C35.2892 8.26371 34.0995 8.70172 32.9861 9.29544C31.8726 8.70172 30.6829 8.26371 29.4503 7.99365C28.9444 7.99365 28.4592 8.19464 28.1014 8.5524C27.7437 8.91016 27.5427 9.39538 27.5427 9.90133C27.5427 10.4073 27.7437 10.8925 28.1014 11.2503C28.4592 11.608 28.9444 11.809 29.4503 11.809C30.4931 11.6052 31.5013 11.2534 32.4445 10.7644V12.3715C32.1575 12.3709 31.8732 12.4268 31.6079 12.5361C31.3426 12.6453 31.1014 12.8058 30.8981 13.0084C30.6948 13.2109 30.5334 13.4515 30.4232 13.7165C30.3129 13.9814 30.2559 14.2654 30.2555 14.5524V17.8181H27.9734C27.9975 17.3954 28.0136 16.7638 27.4286 16.7622H24.788C24.1998 16.7719 24.2207 17.389 24.2416 17.8181H20.82C19.4134 17.8181 18.0644 18.3769 17.0698 19.3715C16.0752 20.3661 15.5164 21.7151 15.5164 23.1217V35.5353C15.5164 35.9507 15.3516 36.3492 15.0581 36.6433C14.7647 36.9373 14.3665 37.103 13.9511 37.1038H8.71981C8.64728 37.1045 8.57559 37.1194 8.50884 37.1478C8.4421 37.1762 8.38161 37.2175 8.33085 37.2693C8.28008 37.3211 8.24004 37.3824 8.21302 37.4497C8.186 37.517 8.17253 37.589 8.17338 37.6615L8.33409 43.4697C8.33705 43.6122 8.39607 43.7479 8.49837 43.8471C8.60066 43.9464 8.73797 44.0014 8.88052 44.0001H17.1236C18.5302 44.0001 19.8791 43.4413 20.8737 42.4467C21.8684 41.4521 22.4271 40.1031 22.4271 38.6965V26.2894C22.4297 26.0621 22.4805 25.8379 22.5761 25.6317C22.6717 25.4255 22.8099 25.2419 22.9817 25.093C23.1535 24.9442 23.3549 24.8335 23.5726 24.7682C23.7904 24.7029 24.0195 24.6846 24.2448 24.7144C24.2255 25.1467 24.1998 25.7638 24.7912 25.7735H27.4318C28.0232 25.7638 27.9975 25.1451 27.9766 24.7144H33.7623C34.1786 24.7148 34.5777 24.8804 34.8721 25.1747C35.1665 25.4691 35.3321 25.8682 35.3325 26.2845V29.981C34.8765 30.1088 34.4748 30.3821 34.1885 30.7592C33.9022 31.1364 33.7469 31.5967 33.7462 32.0703V33.0747C33.7462 33.1465 33.7604 33.2175 33.7878 33.2838C33.8153 33.3501 33.8555 33.4104 33.9063 33.4611C33.957 33.5118 34.0173 33.5521 34.0836 33.5796C34.1498 33.607 34.2209 33.6212 34.2927 33.6212H43.2734C44.0319 33.6212 43.7764 32.5331 43.8166 32.0703C43.8135 31.5996 43.6576 31.1426 43.3724 30.7681C43.0872 30.3937 42.6881 30.1219 42.2352 29.9938ZM36.5218 9.09133C36.7383 9.09133 36.946 9.17735 37.0991 9.33046C37.2522 9.48357 37.3382 9.69123 37.3382 9.90776C37.3382 10.1243 37.2522 10.332 37.0991 10.4851C36.946 10.6382 36.7383 10.7242 36.5218 10.7242C35.7424 10.5411 34.9872 10.2671 34.2718 9.90776C34.987 9.54794 35.7422 9.2739 36.5218 9.09133ZM29.4407 10.7322C29.2242 10.7322 29.0165 10.6462 28.8634 10.4931C28.7103 10.34 28.6243 10.1323 28.6243 9.9158C28.6243 9.69926 28.7103 9.4916 28.8634 9.33849C29.0165 9.18538 29.2242 9.09937 29.4407 9.09937C30.22 9.2827 30.9752 9.55671 31.6907 9.9158C30.9752 10.2749 30.22 10.5489 29.4407 10.7322ZM31.3484 14.5524C31.3492 14.2633 31.4648 13.9863 31.6697 13.7823C31.8746 13.5783 32.1521 13.4639 32.4412 13.4644H33.5277C33.8168 13.4644 34.0941 13.5791 34.2987 13.7834C34.5033 13.9877 34.6185 14.2649 34.6189 14.554V17.8181H31.3484V14.5524ZM23.9909 23.6312C23.286 23.6316 22.6101 23.9118 22.1117 24.4102C21.6133 24.9086 21.3331 25.5845 21.3327 26.2894V38.6965C21.3314 39.8124 20.8875 40.8823 20.0984 41.6714C19.3094 42.4605 18.2395 42.9043 17.1236 42.9056H9.40445L9.28231 38.1887H13.9591C14.6627 38.187 15.3369 37.9064 15.834 37.4084C16.3311 36.9104 16.6105 36.2357 16.6109 35.532V23.1185C16.6126 22.0027 17.0566 20.9331 17.8456 20.1441C18.6346 19.3551 19.7042 18.9111 20.82 18.9094H24.2448V23.6312H23.9909ZM26.8837 24.6854H25.3328V17.8519H26.8837V24.6854ZM33.7607 23.6312H27.975V18.9094H36.9284C38.0442 18.9111 39.1138 19.3551 39.9028 20.1441C40.6918 20.9331 41.1358 22.0027 41.1375 23.1185V29.8958H36.4237V26.2894C36.422 25.5843 36.141 24.9087 35.6421 24.4105C35.1433 23.9122 34.4673 23.632 33.7623 23.6312H33.7607ZM42.7269 32.5428H34.8391C34.7459 31.7858 35.0689 30.9983 35.9287 30.9887H41.6341C42.4955 30.9967 42.8218 31.7858 42.7269 32.5428ZM38.3266 36.2392C37.9344 36.829 35.9753 39.8424 35.9753 41.1892C35.9753 41.9334 36.271 42.6471 36.7972 43.1734C37.3235 43.6996 38.0372 43.9953 38.7814 43.9953C39.5256 43.9953 40.2394 43.6996 40.7656 43.1734C41.2918 42.6471 41.5875 41.9334 41.5875 41.1892C41.5875 39.8424 39.6284 36.829 39.2362 36.2392C39.1832 36.1685 39.1144 36.1113 39.0353 36.0719C38.9562 36.0326 38.869 36.0123 38.7806 36.0126C38.6923 36.0129 38.6052 36.0338 38.5264 36.0737C38.4476 36.1136 38.3791 36.1714 38.3266 36.2424V36.2392ZM38.7814 42.9072C38.3262 42.9064 37.8898 42.725 37.5681 42.403C37.2463 42.0809 37.0654 41.6444 37.065 41.1892C37.4262 39.8886 38.0067 38.6592 38.7814 37.5538C39.5561 38.6592 40.1366 39.8886 40.4978 41.1892C40.4983 41.4149 40.4542 41.6386 40.3681 41.8473C40.2821 42.056 40.1558 42.2457 39.9963 42.4055C39.8369 42.5654 39.6476 42.6923 39.4391 42.7789C39.2307 42.8655 39.0072 42.9102 38.7814 42.9104V42.9072Z" fill="white"/>
</g>
<defs>
<clipPath id="clip0_302_552">
<rect width="36" height="36" fill="white" transform="translate(8 8)"/>
</clipPath>
</defs>
</svg>
