<svg width="52" height="52" viewBox="0 0 52 52" fill="none" xmlns="http://www.w3.org/2000/svg">
<rect width="52" height="52" fill="white" fill-opacity="0.15"/>
<path d="M42.2262 40.8827H37.7589V35.195H42.2262C42.3568 35.195 42.482 35.1431 42.5743 35.0508C42.6666 34.9585 42.7184 34.8333 42.7184 34.7028C42.7184 34.5723 42.6666 34.4471 42.5743 34.3548C42.482 34.2625 42.3568 34.2106 42.2262 34.2106H37.7589V33.8515C37.7589 33.7209 37.707 33.5957 37.6147 33.5034C37.5224 33.4111 37.3972 33.3593 37.2667 33.3593H34.9669C34.6983 33.3599 34.4362 33.4414 34.2147 33.5933C33.9931 33.7452 33.8226 33.9603 33.7252 34.2106H29.8282V27.9688C30.0785 27.8715 30.2937 27.7009 30.4456 27.4794C30.5976 27.2579 30.6792 26.9957 30.6798 26.7271V24.4282C30.6798 24.2976 30.6279 24.1725 30.5356 24.0801C30.4433 23.9878 30.3182 23.936 30.1876 23.936H29.8282V18.1422C29.8283 18.049 29.8653 17.9596 29.9312 17.8937C29.9971 17.8278 30.0865 17.7908 30.1797 17.7907H33.7252C33.8226 18.041 33.9931 18.2561 34.2147 18.408C34.4362 18.5598 34.6983 18.6414 34.9669 18.642H37.2667C37.3972 18.642 37.5224 18.5902 37.6147 18.4979C37.707 18.4056 37.7589 18.2804 37.7589 18.1498V9.77393C37.7589 9.64339 37.707 9.5182 37.6147 9.4259C37.5224 9.33359 37.3972 9.28174 37.2667 9.28174H34.9669C34.6983 9.28227 34.4361 9.36381 34.2146 9.51569C33.9931 9.66757 33.8225 9.88274 33.7252 10.1331H28.2892C26.6674 10.1349 25.1125 10.78 23.9657 11.9268C22.8189 13.0736 22.1739 14.6285 22.172 16.2503V23.936H21.8126C21.682 23.936 21.5568 23.9878 21.4645 24.0801C21.3722 24.1725 21.3204 24.2976 21.3204 24.4282V26.7282C21.3212 26.9967 21.4029 27.2586 21.5548 27.4799C21.7068 27.7012 21.9218 27.8716 22.172 27.9688V34.2106H18.275C18.1776 33.9603 18.007 33.7452 17.7855 33.5933C17.564 33.4414 17.3018 33.3599 17.0333 33.3593H14.7335C14.603 33.3593 14.4778 33.4111 14.3855 33.5034C14.2932 33.5957 14.2413 33.7209 14.2413 33.8515V34.2106H9.77393C9.64339 34.2106 9.5182 34.2625 9.4259 34.3548C9.33359 34.4471 9.28174 34.5723 9.28174 34.7028C9.28174 34.8333 9.33359 34.9585 9.4259 35.0508C9.5182 35.1431 9.64339 35.195 9.77393 35.195H14.2413V40.8827H9.77393C9.64339 40.8827 9.5182 40.9346 9.4259 41.0269C9.33359 41.1192 9.28174 41.2444 9.28174 41.3749C9.28174 41.5054 9.33359 41.6306 9.4259 41.7229C9.5182 41.8152 9.64339 41.8671 9.77393 41.8671H14.2413V42.2262C14.2413 42.3568 14.2932 42.482 14.3855 42.5743C14.4778 42.6666 14.603 42.7184 14.7335 42.7184H17.0333C17.3019 42.7179 17.5641 42.6364 17.7856 42.4845C18.0071 42.3326 18.1777 42.1174 18.275 41.8671H33.7252C33.8225 42.1174 33.9931 42.3326 34.2146 42.4845C34.4361 42.6364 34.6983 42.7179 34.9669 42.7184H37.2667C37.3972 42.7184 37.5224 42.6666 37.6147 42.5743C37.707 42.482 37.7589 42.3568 37.7589 42.2262V41.8671H42.2262C42.3568 41.8671 42.482 41.8152 42.5743 41.7229C42.6666 41.6306 42.7184 41.5054 42.7184 41.3749C42.7184 41.2444 42.6666 41.1192 42.5743 41.0269C42.482 40.9346 42.3568 40.8827 42.2262 40.8827ZM22.6563 27.0798C22.5631 27.0797 22.4738 27.0426 22.4079 26.9767C22.342 26.9108 22.3049 26.8214 22.3047 26.7282V24.9204H29.6954V26.7282C29.6953 26.8214 29.6582 26.9108 29.5923 26.9767C29.5264 27.0426 29.4371 27.0797 29.3439 27.0798H22.6563ZM34.6153 10.6177C34.6153 10.5244 34.6524 10.435 34.7183 10.3691C34.7842 10.3032 34.8737 10.2661 34.9669 10.2661H36.7745V17.6565H34.9669C34.8737 17.6564 34.7843 17.6194 34.7184 17.5535C34.6525 17.4876 34.6154 17.3982 34.6153 17.305V10.6177ZM23.1564 16.2503C23.1579 14.8894 23.6992 13.5848 24.6615 12.6225C25.6237 11.6603 26.9284 11.119 28.2892 11.1175H33.631V16.8052H30.1797C29.8256 16.8056 29.486 16.9465 29.2356 17.197C28.9851 17.4474 28.8442 17.7869 28.8438 18.1411V23.9349H23.1564V16.2503ZM22.6642 35.195C22.7947 35.195 22.9199 35.1431 23.0122 35.0508C23.1045 34.9585 23.1564 34.8333 23.1564 34.7028V28.0653H28.8438V34.7028C28.8438 34.8333 28.8957 34.9585 28.988 35.0508C29.0803 35.1431 29.2055 35.195 29.336 35.195H33.631V40.8827H18.3692V35.195H22.6642ZM17.3848 41.3825C17.3848 41.4757 17.3478 41.5652 17.2819 41.6311C17.2159 41.697 17.1265 41.7341 17.0333 41.7341H15.2257V34.3436H17.0333C17.1265 34.3437 17.2159 34.3808 17.2818 34.4467C17.3477 34.5126 17.3848 34.602 17.3848 34.6952V41.3825ZM36.7745 41.7341H34.9669C34.8737 41.7341 34.7842 41.697 34.7183 41.6311C34.6524 41.5652 34.6153 41.4757 34.6153 41.3825V34.6952C34.6154 34.602 34.6525 34.5126 34.7184 34.4467C34.7843 34.3808 34.8737 34.3437 34.9669 34.3436H36.7745V41.7341Z" fill="white"/>
</svg>
