<?xml version="1.0" encoding="utf-8"?><svg viewBox="0 0 75 20" xmlns="http://www.w3.org/2000/svg" xmlns:xlink="http://www.w3.org/1999/xlink"><style>:root>svg{display:none}:root>svg:target{display:block}</style><svg viewBox="0 0 75 15" id="arr-l" xmlns="http://www.w3.org/2000/svg"><path fill-rule="evenodd" clip-rule="evenodd" d="M6.657 14.435L.293 8.07a1 1 0 010-1.415L6.657.293A1 1 0 018.07 1.707L3.414 6.364H74a1 1 0 110 2H3.414l4.657 4.656a1 1 0 11-1.414 1.415z"/></svg><svg viewBox="0 0 75 15" id="arr-r" xmlns="http://www.w3.org/2000/svg"><path fill-rule="evenodd" clip-rule="evenodd" d="M68.343.293l6.364 6.364a1 1 0 010 1.414l-6.364 6.364a1 1 0 01-1.414-1.414l4.657-4.657H1a1 1 0 110-2h70.586l-4.657-4.657A1 1 0 0168.343.293z"/></svg><svg viewBox="0 0 20 20" id="artix" xmlns="http://www.w3.org/2000/svg"><g clip-path="url(#ca)"><path d="M3.868 16.16a2.254 2.254 0 00-1.515-.69h-.137a2.246 2.246 0 00-1.224.344 2.151 2.151 0 00-.805.9 2.19 2.19 0 00-.137.402c-.067.28-.067.57 0 .851.032.139.078.274.137.404a2.235 2.235 0 002.027 1.239c.17 0 .338-.017.503-.051.154-.035.304-.084.448-.146l.065-.033a.677.677 0 01.104-.048l.096-.035.05.071a.49.49 0 00.187.177.538.538 0 00.62-.078.453.453 0 00.166-.338V17.54a1.905 1.905 0 00-.159-.746 2.19 2.19 0 00-.426-.634zM3.3 17.978a1.138 1.138 0 01-.63.584 1.269 1.269 0 01-.46.084c-.151 0-.3-.03-.439-.09a1.306 1.306 0 01-.371-.234c-.11-.1-.2-.219-.264-.35a.966.966 0 01-.101-.433c0-.146.033-.29.096-.423.061-.133.149-.253.258-.355a1.24 1.24 0 01.373-.241 1.176 1.176 0 01.9 0c.14.057.27.14.378.241.109.102.196.222.258.355a1.03 1.03 0 01.001.866v-.004zm4.216-2.496c-.29.01-.576.07-.844.175a2.29 2.29 0 00-.696.427 2.066 2.066 0 00-.465.634 1.735 1.735 0 00-.177.77v1.655a.438.438 0 00.148.346.479.479 0 00.35.13.54.54 0 00.375-.123.438.438 0 00.159-.316v-1.63a1.023 1.023 0 01.088-.442 1.126 1.126 0 01.626-.587c.141-.055.293-.082.445-.081a.565.565 0 00.373-.146.442.442 0 00.149-.33.521.521 0 00-.531-.482zm5.211 3.027a.543.543 0 00-.487-.271h-.01a.567.567 0 00-.372.13.98.98 0 01-.347.202 1.41 1.41 0 01-.467.066c-.162 0-.323-.03-.472-.09a1.148 1.148 0 01-.377-.25 1.108 1.108 0 01-.222-.36 1.038 1.038 0 01-.066-.43v-1.065h1.166a.506.506 0 00.353-.152.479.479 0 00.16-.338.456.456 0 00-.144-.345.464.464 0 00-.369-.13H9.907v-.93a.386.386 0 00-.036-.179.407.407 0 00-.116-.146.628.628 0 00-.401-.13.609.609 0 00-.394.13c-.05.04-.09.09-.116.146a.386.386 0 00-.036.18v2.952a1.981 1.981 0 00.685 1.534c.214.187.465.332.738.429.287.1.592.152.898.15.283.003.563-.05.823-.153.262-.106.501-.257.706-.445a.365.365 0 00.096-.147.478.478 0 00.027-.183.44.44 0 00-.054-.175zm7.123.281l-1.326-1.25 1.324-1.248a.468.468 0 00.137-.34.428.428 0 00-.137-.334.533.533 0 00-.36-.148h-.006a.486.486 0 00-.337.139l-1.354 1.25-1.325-1.239a.622.622 0 00-.362-.149.48.48 0 00-.36.147.57.57 0 00-.155.341.36.36 0 00.03.172.37.37 0 00.108.141l1.354 1.267-1.354 1.267a.412.412 0 00-.137.337c.004.126.06.245.154.333a.451.451 0 00.365.13.62.62 0 00.367-.13l1.32-1.244 1.325 1.22a.504.504 0 00.377.159.507.507 0 00.358-.13.425.425 0 00.15-.35.458.458 0 00-.157-.342zm-5.376-3.181a.572.572 0 00-.107-.07.473.473 0 00-.25-.065.473.473 0 00-.25.066.572.572 0 00-.107.069.41.41 0 00-.115.14.387.387 0 00-.041.173v3.236a.436.436 0 00.166.334c.094.078.216.12.342.117h.018a.511.511 0 00.463-.267.415.415 0 00.044-.184v-3.236a.39.39 0 00-.163-.313zm.027-1.363a.46.46 0 00-.347-.142.531.531 0 00-.477.275.422.422 0 00-.044.178.448.448 0 00.137.364c.105.09.24.139.382.138a.481.481 0 00.344-.143.465.465 0 00.147-.337.465.465 0 00-.147-.337l.005.004z"/></g><g clip-path="url(#cb)"><path d="M9.999 5.553c-1.5 0-2.864 1.271-2.864 2.84.002.577.186 1.139.527 1.607.728-.427 1.517-.73 2.342-.73.825 0 1.613.303 2.343.73a2.75 2.75 0 00.526-1.607c-.005-1.569-1.37-2.84-2.874-2.84z"/><path d="M9.997.383c-3.682 0-6.666 7.71-6.666 11.309 0 2.792 1.798-.207 4.324-1.691a2.726 2.726 0 01.088-3.331 2.33 2.33 0 00-.184.909c0 .639.257 1.252.714 1.704a2.452 2.452 0 001.724.707c.647 0 1.267-.254 1.724-.707a2.398 2.398 0 00.714-1.704 2.33 2.33 0 00-.184-.91 2.729 2.729 0 01.089 3.332c2.527 1.483 4.324 4.483 4.324 1.69 0-3.597-2.985-11.308-6.667-11.308z"/></g><defs><clipPath id="ca"><path transform="translate(0 14.082)" d="M0 0h20v5.536H0z"/></clipPath><clipPath id="cb"><path transform="translate(3.333 .383)" d="M0 0h13.333v12.455H0z"/></clipPath></defs></svg></svg>