<svg width="40" height="40" viewBox="0 0 40 40" fill="none" xmlns="http://www.w3.org/2000/svg">
<rect width="40" height="40" fill="#00B1C9" fill-opacity="0.08"/>
<mask id="path-1-inside-1_182_322" fill="white">
<path fill-rule="evenodd" clip-rule="evenodd" d="M31.405 24.8653C30.861 23.7697 30.1442 22.7689 29.282 21.9013C28.9936 21.5754 28.6917 21.2618 28.377 20.9613L28.339 20.9243C28.2222 20.8108 28.1068 20.6958 27.993 20.5793C29.1716 18.9404 30.1801 17.1857 31.003 15.3423L31.036 15.2683L31.059 15.1903C31.168 14.8273 31.292 14.1373 30.852 13.5133C30.396 12.8693 29.667 12.7533 29.178 12.7533H26.931C26.4605 12.7319 25.9953 12.8598 25.6019 13.1188C25.2086 13.3778 24.9072 13.7546 24.741 14.1953C24.2574 15.3469 23.652 16.4435 22.935 17.4663V14.8333C22.935 14.4933 22.903 13.9233 22.538 13.4433C22.102 12.8673 21.471 12.7533 21.033 12.7533H17.467C17.0017 12.7426 16.5501 12.9113 16.2057 13.2244C15.8613 13.5375 15.6505 13.9711 15.617 14.4353L15.614 14.4803V14.5253C15.614 15.0103 15.806 15.3683 15.96 15.5933C16.029 15.6943 16.102 15.7863 16.149 15.8443L16.159 15.8573C16.209 15.9193 16.242 15.9603 16.275 16.0063C16.363 16.1243 16.488 16.3083 16.524 16.7823V18.2553C15.8082 17.0566 15.2212 15.7855 14.773 14.4633L14.765 14.4413L14.757 14.4203C14.635 14.1013 14.44 13.6373 14.049 13.2833C13.593 12.8683 13.053 12.7533 12.562 12.7533H10.282C9.785 12.7533 9.186 12.8693 8.739 13.3403C8.3 13.8043 8.25 14.3603 8.25 14.6543V14.7883L8.278 14.9183C8.9093 17.8491 10.2102 20.594 12.079 22.9383C12.9334 24.2856 14.0933 25.4126 15.4646 26.2278C16.836 27.043 18.3802 27.5235 19.972 27.6303L20.013 27.6333H20.055C20.781 27.6333 21.538 27.5703 22.107 27.1913C22.874 26.6793 22.935 25.8943 22.935 25.5023V24.3643C23.132 24.5243 23.376 24.7383 23.675 25.0263C24.037 25.3883 24.325 25.7023 24.572 25.9763L24.704 26.1223C24.896 26.3363 25.085 26.5473 25.257 26.7203C25.473 26.9373 25.74 27.1763 26.074 27.3533C26.437 27.5443 26.818 27.6313 27.222 27.6313H29.503C29.984 27.6313 30.673 27.5173 31.158 26.9553C31.686 26.3433 31.646 25.5923 31.48 25.0533L31.45 24.9563L31.405 24.8653ZM25.685 24.9713C25.3751 24.6248 25.056 24.2867 24.728 23.9573L24.725 23.9543C23.368 22.6463 22.735 22.4193 22.287 22.4193C22.048 22.4193 21.785 22.4453 21.614 22.6593C21.537 22.7614 21.4865 22.8809 21.467 23.0073C21.4429 23.154 21.4322 23.3026 21.435 23.4513V25.5023C21.435 25.7573 21.393 25.8643 21.275 25.9423C21.118 26.0473 20.783 26.1323 20.064 26.1323C18.6982 26.0394 17.374 25.6236 16.2002 24.9192C15.0264 24.2148 14.0365 23.2418 13.312 22.0803L13.304 22.0673L13.294 22.0553C11.5531 19.8884 10.3398 17.3465 9.75 14.6303C9.754 14.5003 9.782 14.4213 9.828 14.3733C9.875 14.3233 9.99 14.2533 10.282 14.2533H12.562C12.815 14.2533 12.947 14.3093 13.042 14.3943C13.148 14.4923 13.242 14.6573 13.354 14.9513C13.914 16.5973 14.67 18.1373 15.387 19.2683C15.745 19.8343 16.097 20.3053 16.415 20.6383C16.574 20.8043 16.729 20.9423 16.878 21.0403C17.021 21.1343 17.184 21.2093 17.352 21.2093C17.44 21.2093 17.543 21.1993 17.642 21.1563C17.7489 21.1091 17.8369 21.0274 17.892 20.9243C17.995 20.7363 18.024 20.4593 18.024 20.0963V16.7233C17.971 15.9053 17.724 15.4443 17.484 15.1173C17.4354 15.0519 17.3854 14.9875 17.334 14.9243L17.321 14.9083C17.2784 14.8565 17.2377 14.8031 17.199 14.7483C17.1498 14.6871 17.1201 14.6126 17.114 14.5343C17.1218 14.4548 17.1598 14.3814 17.22 14.3289C17.2802 14.2765 17.3582 14.2491 17.438 14.2523H21.033C21.239 14.2523 21.308 14.3023 21.343 14.3493C21.393 14.4143 21.435 14.5493 21.435 14.8333V19.3613C21.435 19.8993 21.683 20.2633 22.043 20.2633C22.457 20.2633 22.756 20.0123 23.278 19.4903L23.287 19.4803L23.295 19.4713C24.466 18.0436 25.4227 16.4529 26.135 14.7493L26.139 14.7373C26.1925 14.5868 26.2938 14.4579 26.4274 14.3703C26.561 14.2828 26.7196 14.2413 26.879 14.2523H29.179C29.491 14.2523 29.593 14.3323 29.627 14.3793C29.662 14.4293 29.687 14.5363 29.627 14.7463C28.8056 16.5826 27.7901 18.3259 26.598 19.9463L26.59 19.9583C26.475 20.1353 26.348 20.3313 26.33 20.5553C26.31 20.7973 26.414 21.0163 26.597 21.2523C26.73 21.4483 27.005 21.7173 27.284 21.9903L27.31 22.0163C27.602 22.3023 27.919 22.6123 28.173 22.9123L28.18 22.9193L28.187 22.9273C28.9444 23.6828 29.5743 24.5561 30.052 25.5133C30.128 25.7733 30.082 25.9073 30.022 25.9763C29.953 26.0563 29.798 26.1313 29.504 26.1313H27.222C27.0665 26.1351 26.9126 26.0989 26.775 26.0263C26.6064 25.9282 26.4534 25.8055 26.321 25.6623C26.178 25.5193 26.023 25.3463 25.833 25.1353L25.686 24.9713H25.685Z"/>
</mask>
<path fill-rule="evenodd" clip-rule="evenodd" d="M31.405 24.8653C30.861 23.7697 30.1442 22.7689 29.282 21.9013C28.9936 21.5754 28.6917 21.2618 28.377 20.9613L28.339 20.9243C28.2222 20.8108 28.1068 20.6958 27.993 20.5793C29.1716 18.9404 30.1801 17.1857 31.003 15.3423L31.036 15.2683L31.059 15.1903C31.168 14.8273 31.292 14.1373 30.852 13.5133C30.396 12.8693 29.667 12.7533 29.178 12.7533H26.931C26.4605 12.7319 25.9953 12.8598 25.6019 13.1188C25.2086 13.3778 24.9072 13.7546 24.741 14.1953C24.2574 15.3469 23.652 16.4435 22.935 17.4663V14.8333C22.935 14.4933 22.903 13.9233 22.538 13.4433C22.102 12.8673 21.471 12.7533 21.033 12.7533H17.467C17.0017 12.7426 16.5501 12.9113 16.2057 13.2244C15.8613 13.5375 15.6505 13.9711 15.617 14.4353L15.614 14.4803V14.5253C15.614 15.0103 15.806 15.3683 15.96 15.5933C16.029 15.6943 16.102 15.7863 16.149 15.8443L16.159 15.8573C16.209 15.9193 16.242 15.9603 16.275 16.0063C16.363 16.1243 16.488 16.3083 16.524 16.7823V18.2553C15.8082 17.0566 15.2212 15.7855 14.773 14.4633L14.765 14.4413L14.757 14.4203C14.635 14.1013 14.44 13.6373 14.049 13.2833C13.593 12.8683 13.053 12.7533 12.562 12.7533H10.282C9.785 12.7533 9.186 12.8693 8.739 13.3403C8.3 13.8043 8.25 14.3603 8.25 14.6543V14.7883L8.278 14.9183C8.9093 17.8491 10.2102 20.594 12.079 22.9383C12.9334 24.2856 14.0933 25.4126 15.4646 26.2278C16.836 27.043 18.3802 27.5235 19.972 27.6303L20.013 27.6333H20.055C20.781 27.6333 21.538 27.5703 22.107 27.1913C22.874 26.6793 22.935 25.8943 22.935 25.5023V24.3643C23.132 24.5243 23.376 24.7383 23.675 25.0263C24.037 25.3883 24.325 25.7023 24.572 25.9763L24.704 26.1223C24.896 26.3363 25.085 26.5473 25.257 26.7203C25.473 26.9373 25.74 27.1763 26.074 27.3533C26.437 27.5443 26.818 27.6313 27.222 27.6313H29.503C29.984 27.6313 30.673 27.5173 31.158 26.9553C31.686 26.3433 31.646 25.5923 31.48 25.0533L31.45 24.9563L31.405 24.8653ZM25.685 24.9713C25.3751 24.6248 25.056 24.2867 24.728 23.9573L24.725 23.9543C23.368 22.6463 22.735 22.4193 22.287 22.4193C22.048 22.4193 21.785 22.4453 21.614 22.6593C21.537 22.7614 21.4865 22.8809 21.467 23.0073C21.4429 23.154 21.4322 23.3026 21.435 23.4513V25.5023C21.435 25.7573 21.393 25.8643 21.275 25.9423C21.118 26.0473 20.783 26.1323 20.064 26.1323C18.6982 26.0394 17.374 25.6236 16.2002 24.9192C15.0264 24.2148 14.0365 23.2418 13.312 22.0803L13.304 22.0673L13.294 22.0553C11.5531 19.8884 10.3398 17.3465 9.75 14.6303C9.754 14.5003 9.782 14.4213 9.828 14.3733C9.875 14.3233 9.99 14.2533 10.282 14.2533H12.562C12.815 14.2533 12.947 14.3093 13.042 14.3943C13.148 14.4923 13.242 14.6573 13.354 14.9513C13.914 16.5973 14.67 18.1373 15.387 19.2683C15.745 19.8343 16.097 20.3053 16.415 20.6383C16.574 20.8043 16.729 20.9423 16.878 21.0403C17.021 21.1343 17.184 21.2093 17.352 21.2093C17.44 21.2093 17.543 21.1993 17.642 21.1563C17.7489 21.1091 17.8369 21.0274 17.892 20.9243C17.995 20.7363 18.024 20.4593 18.024 20.0963V16.7233C17.971 15.9053 17.724 15.4443 17.484 15.1173C17.4354 15.0519 17.3854 14.9875 17.334 14.9243L17.321 14.9083C17.2784 14.8565 17.2377 14.8031 17.199 14.7483C17.1498 14.6871 17.1201 14.6126 17.114 14.5343C17.1218 14.4548 17.1598 14.3814 17.22 14.3289C17.2802 14.2765 17.3582 14.2491 17.438 14.2523H21.033C21.239 14.2523 21.308 14.3023 21.343 14.3493C21.393 14.4143 21.435 14.5493 21.435 14.8333V19.3613C21.435 19.8993 21.683 20.2633 22.043 20.2633C22.457 20.2633 22.756 20.0123 23.278 19.4903L23.287 19.4803L23.295 19.4713C24.466 18.0436 25.4227 16.4529 26.135 14.7493L26.139 14.7373C26.1925 14.5868 26.2938 14.4579 26.4274 14.3703C26.561 14.2828 26.7196 14.2413 26.879 14.2523H29.179C29.491 14.2523 29.593 14.3323 29.627 14.3793C29.662 14.4293 29.687 14.5363 29.627 14.7463C28.8056 16.5826 27.7901 18.3259 26.598 19.9463L26.59 19.9583C26.475 20.1353 26.348 20.3313 26.33 20.5553C26.31 20.7973 26.414 21.0163 26.597 21.2523C26.73 21.4483 27.005 21.7173 27.284 21.9903L27.31 22.0163C27.602 22.3023 27.919 22.6123 28.173 22.9123L28.18 22.9193L28.187 22.9273C28.9444 23.6828 29.5743 24.5561 30.052 25.5133C30.128 25.7733 30.082 25.9073 30.022 25.9763C29.953 26.0563 29.798 26.1313 29.504 26.1313H27.222C27.0665 26.1351 26.9126 26.0989 26.775 26.0263C26.6064 25.9282 26.4534 25.8055 26.321 25.6623C26.178 25.5193 26.023 25.3463 25.833 25.1353L25.686 24.9713H25.685Z" fill="black" stroke="#00B1C9" stroke-width="2" mask="url(#path-1-inside-1_182_322)"/>
</svg>
